<svg width="15" height="15" viewBox="0 0 15 15" fill="none" xmlns="http://www.w3.org/2000/svg">
<g clip-path="url(#clip0)">
<path d="M14.3455 2.35231C14.1385 2.14479 13.8031 2.14425 13.5954 2.35088L9.56886 6.36119L8.40519 5.19753C8.19801 4.99054 7.86253 4.99034 7.65535 5.19753L2.93566 9.91724C2.72848 10.1242 2.72848 10.4601 2.93566 10.6671C3.03907 10.7707 3.17484 10.8225 3.3106 10.8225C3.44617 10.8225 3.58212 10.7707 3.68551 10.6671L8.03028 6.3225L9.19324 7.48527C9.40023 7.69226 9.73486 7.69245 9.94237 7.48614L14.3439 3.10232C14.5514 2.89568 14.5521 2.55982 14.3455 2.35231Z" fill="white"/>
<path d="M13.952 12.4487H1.56061V1.31241C1.56061 1.0195 1.32321 0.782104 1.0303 0.782104C0.737398 0.782104 0.5 1.0195 0.5 1.31241V12.979C0.5 13.272 0.737398 13.5093 1.0303 13.5093H13.952C14.2449 13.5093 14.4823 13.272 14.4823 12.979C14.4823 12.6861 14.2449 12.4487 13.952 12.4487Z" fill="white"/>
<path d="M13.9697 2.17859H9.99246C9.69956 2.17859 9.46216 2.41599 9.46216 2.70889C9.46216 3.0018 9.69956 3.2392 9.99246 3.2392H13.4394V6.68633C13.4394 6.97905 13.6768 7.21664 13.9697 7.21664C14.2626 7.21664 14.5 6.97905 14.5 6.68614V2.70889C14.5 2.41599 14.2626 2.17859 13.9697 2.17859Z" fill="white"/>
</g>
<defs>
<clipPath id="clip0">
<rect width="14" height="14" fill="white" transform="translate(0.5 0.145752)"/>
</clipPath>
</defs>
</svg>
