<svg width="17" height="16" viewBox="0 0 17 16" fill="none" xmlns="http://www.w3.org/2000/svg">
<g clip-path="url(#clip0)">
<path d="M12.582 -0.0637773C12.5223 -0.175475 12.4059 -0.24527 12.2791 -0.24527H9.53065C9.40485 -0.24527 9.28909 -0.176506 9.22903 -0.0660963L5.10639 7.49207C5.04835 7.59843 5.0507 7.72761 5.11245 7.83193C5.17451 7.93593 5.28692 8.00003 5.40802 8.00003H8.25608L6.00857 11.9955L5.25503 11.4933C5.15338 11.4258 5.02455 11.4174 4.91517 11.4698C4.80547 11.5224 4.73233 11.6295 4.72225 11.7506L4.37868 15.8732C4.3676 16.0034 4.43134 16.1282 4.54307 16.1956C4.59776 16.2288 4.65951 16.2453 4.72089 16.2453C4.78499 16.2453 4.84905 16.2275 4.90541 16.1916L8.68448 13.7867C8.79924 13.7136 8.85995 13.58 8.8395 13.4455C8.81937 13.311 8.72175 13.2013 8.59056 13.1654L7.59682 12.8943L11.8778 6.47279C11.9479 6.36743 11.9546 6.2319 11.8949 6.12017C11.8352 6.00844 11.7188 5.93868 11.592 5.93868H8.79824L12.5649 0.288837C12.635 0.183516 12.6417 0.0479525 12.582 -0.0637773Z" fill="white"/>
</g>
<defs>
<clipPath id="clip0">
<rect width="16" height="16" fill="white" transform="translate(0.5)"/>
</clipPath>
</defs>
</svg>
