<svg width="24" height="24" viewBox="0 0 24 24" fill="none" xmlns="http://www.w3.org/2000/svg">
<g clip-path="url(#clip0)">
<path d="M11.6814 7.72861L3.99995 15.8643V24.6451C3.99995 24.8725 4.07018 25.0905 4.1952 25.2513C4.32021 25.4121 4.48977 25.5024 4.66657 25.5024L9.33537 25.4868C9.51159 25.4857 9.68029 25.3949 9.80459 25.2343C9.92888 25.0736 9.99866 24.8562 9.99865 24.6296V19.5017C9.99865 19.2744 10.0689 19.0563 10.1939 18.8956C10.3189 18.7348 10.4885 18.6445 10.6653 18.6445H13.3317C13.5085 18.6445 13.6781 18.7348 13.8031 18.8956C13.9281 19.0563 13.9983 19.2744 13.9983 19.5017V24.6259C13.9981 24.7387 14.0151 24.8504 14.0485 24.9547C14.0819 25.059 14.1309 25.1539 14.1929 25.2337C14.2548 25.3136 14.3284 25.377 14.4094 25.4203C14.4904 25.4635 14.5772 25.4858 14.665 25.4858L19.3321 25.5024C19.5089 25.5024 19.6785 25.4121 19.8035 25.2513C19.9285 25.0905 19.9987 24.8725 19.9987 24.6451V15.8584L12.3189 7.72861C12.2286 7.63502 12.1161 7.58399 12.0002 7.58399C11.8842 7.58399 11.7717 7.63502 11.6814 7.72861ZM23.8151 13.2583L20.332 9.56632V2.14531C20.332 1.97479 20.2794 1.81126 20.1856 1.69069C20.0918 1.57012 19.9647 1.50238 19.8321 1.50238H17.4989C17.3663 1.50238 17.2391 1.57012 17.1454 1.69069C17.0516 1.81126 16.9989 1.97479 16.9989 2.14531V6.03556L13.2688 2.08905C12.9109 1.71025 12.4617 1.50314 11.9981 1.50314C11.5345 1.50314 11.0853 1.71025 10.7273 2.08905L0.181078 13.2583C0.130451 13.3121 0.0885661 13.3783 0.0578151 13.4529C0.0270641 13.5275 0.00805013 13.6092 0.00185952 13.6933C-0.00433109 13.7774 0.00242302 13.8622 0.0217359 13.9429C0.0410488 14.0237 0.072542 14.0987 0.114416 14.1638L1.17683 15.8247C1.21859 15.89 1.26996 15.9441 1.32799 15.9838C1.38602 16.0235 1.44957 16.0482 1.51501 16.0563C1.58045 16.0644 1.6465 16.0558 1.70936 16.0311C1.77222 16.0063 1.83067 15.9659 1.88136 15.912L11.6814 5.53194C11.7717 5.43835 11.8842 5.38732 12.0002 5.38732C12.1161 5.38732 12.2286 5.43835 12.3189 5.53194L22.1194 15.912C22.17 15.9659 22.2283 16.0064 22.2911 16.0312C22.3539 16.056 22.4199 16.0647 22.4853 16.0568C22.5506 16.0488 22.6142 16.0244 22.6722 15.9848C22.7302 15.9453 22.7817 15.8914 22.8235 15.8263L23.8859 14.1654C23.9277 14.1 23.9591 14.0245 23.9782 13.9434C23.9973 13.8624 24.0037 13.7772 23.9971 13.6929C23.9906 13.6086 23.9711 13.5269 23.9398 13.4523C23.9086 13.3777 23.8662 13.3118 23.8151 13.2583Z" fill="#F2F2F2"/>
</g>
<defs>
<clipPath id="clip0">
<rect width="24" height="24" fill="white"/>
</clipPath>
</defs>
</svg>
