<svg width="15" height="15" viewBox="0 0 15 15" fill="none" xmlns="http://www.w3.org/2000/svg">
<g clip-path="url(#clip0)">
<path d="M5.53937 14.1822C5.42454 14.1822 5.31303 14.1372 5.23025 14.0539C5.12291 13.9466 5.07912 13.7919 5.11362 13.6444L5.74946 10.9464C5.76805 10.8671 5.80832 10.7948 5.8661 10.7376L11.4346 5.1691C11.9298 4.67328 12.795 4.67264 13.2908 5.1691L14.1156 5.9939C14.3635 6.24128 14.5 6.57143 14.5 6.92145C14.5 7.27201 14.3635 7.60216 14.1156 7.84954L8.54707 13.4174C8.48929 13.4752 8.41698 13.5155 8.33826 13.534L5.6403 14.1699C5.60655 14.1787 5.57269 14.1822 5.53937 14.1822ZM6.57245 11.2678L6.12736 13.1567L8.01622 12.7116L13.4967 7.2312C13.5795 7.14832 13.625 7.03873 13.625 6.92199C13.625 6.80535 13.5795 6.69512 13.4967 6.61287L12.6718 5.78797C12.5009 5.61771 12.2238 5.61707 12.0529 5.78797L6.57245 11.2678ZM8.23796 13.1088H8.24373H8.23796Z" fill="white"/>
<path d="M12.3627 9.42159C12.2507 9.42159 12.1387 9.37897 12.0535 9.2933L9.99084 7.23056C9.81995 7.05966 9.81995 6.78259 9.99084 6.61169C10.1617 6.4408 10.4388 6.4408 10.6097 6.61169L12.6725 8.67433C12.8434 8.84523 12.8434 9.1223 12.6725 9.2933C12.5867 9.37897 12.4746 9.42159 12.3627 9.42159Z" fill="white"/>
<path d="M4.49005 12.4321H1.8125C1.08853 12.4321 0.5 11.8436 0.5 11.1196V1.49463C0.5 0.77066 1.08853 0.182129 1.8125 0.182129H10.2708C10.9948 0.182129 11.5833 0.77066 11.5833 1.49463V4.19547C11.5833 4.43697 11.3873 4.63297 11.1458 4.63297C10.9043 4.63297 10.7083 4.43697 10.7083 4.19547V1.49463C10.7083 1.25313 10.5123 1.05713 10.2708 1.05713H1.8125C1.571 1.05713 1.375 1.25313 1.375 1.49463V11.1196C1.375 11.3611 1.571 11.5571 1.8125 11.5571H4.49005C4.73155 11.5571 4.92755 11.7531 4.92755 11.9946C4.92755 12.2361 4.73155 12.4321 4.49005 12.4321Z" fill="white"/>
<path d="M11.1458 3.97388H0.9375C0.695999 3.97388 0.5 3.77788 0.5 3.53638C0.5 3.29488 0.695999 3.09888 0.9375 3.09888H11.1458C11.3873 3.09888 11.5833 3.29488 11.5833 3.53638C11.5833 3.77788 11.3873 3.97388 11.1458 3.97388Z" fill="white"/>
<path d="M8.99921 6.89038H0.9375C0.695999 6.89038 0.5 6.69438 0.5 6.45288C0.5 6.21138 0.695999 6.01538 0.9375 6.01538H8.99921C9.24071 6.01538 9.43671 6.21138 9.43671 6.45288C9.43671 6.69438 9.24071 6.89038 8.99921 6.89038Z" fill="white"/>
<path d="M6.0417 9.80713H0.9375C0.695999 9.80713 0.5 9.61113 0.5 9.36963C0.5 9.12813 0.695999 8.93213 0.9375 8.93213H6.0417C6.2832 8.93213 6.4792 9.12813 6.4792 9.36963C6.4792 9.61113 6.2832 9.80713 6.0417 9.80713Z" fill="white"/>
<path d="M6.04175 9.80717C5.80025 9.80717 5.60425 9.61118 5.60425 9.36967V3.53638C5.60425 3.29488 5.80025 3.09888 6.04175 3.09888C6.28325 3.09888 6.47925 3.29488 6.47925 3.53638V9.36967C6.47925 9.61118 6.28325 9.80717 6.04175 9.80717Z" fill="white"/>
</g>
<defs>
<clipPath id="clip0">
<rect width="14" height="14" fill="white" transform="translate(0.5 0.182129)"/>
</clipPath>
</defs>
</svg>
