<svg width="16" height="16" viewBox="0 0 16 16" fill="none" xmlns="http://www.w3.org/2000/svg">
<g clip-path="url(#clip0)">
<path d="M9.92342 4.16739H9.28465C9.10826 4.16739 8.96525 4.02438 8.96525 3.84799V1.61226H1.29991V14.3878H8.96525V12.1521C8.96525 11.9757 9.10826 11.8327 9.28465 11.8327H9.92342C10.0998 11.8327 10.2428 11.9757 10.2428 12.1521V14.3878C10.2428 15.0934 9.67082 15.6654 8.96525 15.6654H1.29991C0.594335 15.6654 0.0223389 15.0934 0.0223389 14.3878V1.61226C0.0223389 0.906684 0.594335 0.334718 1.29991 0.334718H8.96525C9.67082 0.334718 10.2428 0.906684 10.2428 1.61228V3.84802C10.2428 4.02438 10.0998 4.16739 9.92342 4.16739Z" fill="white"/>
<path d="M15.2495 8.23552L11.4168 11.7488C11.3232 11.834 11.1875 11.8573 11.0724 11.8056C10.9564 11.7547 10.8816 11.64 10.8816 11.5133V10.8745C10.8816 10.7841 10.9199 10.6977 10.9873 10.6372L13.2076 8.63879H4.17438C3.99784 8.63879 3.85498 8.49593 3.85498 8.31939V7.68062C3.85498 7.50408 3.99784 7.36122 4.17438 7.36122H13.2076L10.9873 5.36284C10.9199 5.30233 10.8816 5.21595 10.8816 5.12549V4.48672C10.8816 4.36009 10.9564 4.24529 11.0724 4.19448C11.1136 4.17606 11.1576 4.16735 11.201 4.16735C11.2793 4.16735 11.3566 4.19637 11.4168 4.25125L15.2495 7.76452C15.3156 7.82504 15.353 7.91049 15.353 8.00002C15.353 8.08955 15.3156 8.17501 15.2495 8.23552Z" fill="white"/>
</g>
<defs>
<clipPath id="clip0">
<rect width="15.3307" height="15.3307" fill="white" transform="matrix(1 0 0 -1 0.0223389 15.6654)"/>
</clipPath>
</defs>
</svg>
