<svg width="15" height="15" viewBox="0 0 15 15" fill="none" xmlns="http://www.w3.org/2000/svg">
<g clip-path="url(#clip0)">
<path d="M7.49994 3.7627C5.65466 3.7627 4.15332 5.26404 4.15332 7.10931C4.15332 8.95459 5.65466 10.4559 7.49994 10.4559C9.34521 10.4559 10.8466 8.95459 10.8466 7.10931C10.8466 5.26404 9.34521 3.7627 7.49994 3.7627ZM7.49994 9.61928C6.11598 9.61928 4.98997 8.49327 4.98997 7.10931C4.98997 5.72536 6.11598 4.59935 7.49994 4.59935C8.8839 4.59935 10.0099 5.72536 10.0099 7.10931C10.0099 8.49327 8.8839 9.61928 7.49994 9.61928Z" fill="white"/>
<path d="M14.1706 5.51532L13.0946 5.2814C13.001 4.99493 12.8851 4.71552 12.7483 4.44635L13.344 3.51976C13.4504 3.3542 13.427 3.13684 13.2879 2.99777L11.6116 1.32147C11.4725 1.1824 11.2552 1.15901 11.0896 1.2654L10.163 1.86108C9.89386 1.72426 9.61444 1.60837 9.32797 1.5148L9.09406 0.438782C9.05229 0.246521 8.88203 0.109375 8.68529 0.109375H6.31471C6.11797 0.109375 5.94771 0.246521 5.90594 0.438782L5.67203 1.5148C5.38556 1.60837 5.10614 1.72426 4.83698 1.86108L3.91039 1.2654C3.74483 1.15901 3.52747 1.1824 3.3884 1.32147L1.7121 2.99777C1.57303 3.13684 1.54964 3.3542 1.65602 3.51976L2.25171 4.44635C2.11488 4.71552 1.99899 4.99493 1.90543 5.2814L0.829407 5.51532C0.637146 5.55719 0.5 5.72734 0.5 5.92409V8.29466C0.5 8.49141 0.637146 8.66156 0.829407 8.70343L1.90543 8.93735C1.99899 9.22382 2.11488 9.50323 2.25171 9.7724L1.65602 10.699C1.54964 10.8645 1.57303 11.0819 1.7121 11.221L3.3884 12.8973C3.52747 13.0363 3.74483 13.0597 3.91039 12.9534L4.83698 12.3577C5.10614 12.4945 5.38556 12.6104 5.67203 12.7039L5.90594 13.78C5.94771 13.9722 6.11797 14.1094 6.31471 14.1094H8.68529C8.88203 14.1094 9.05229 13.9722 9.09406 13.78L9.32797 12.7039C9.61444 12.6104 9.89386 12.4945 10.163 12.3577L11.0896 12.9534C11.2552 13.0597 11.4725 13.0365 11.6116 12.8973L13.2879 11.221C13.427 11.0819 13.4504 10.8645 13.344 10.699L12.7483 9.7724C12.8851 9.50323 13.001 9.22382 13.0946 8.93735L14.1706 8.70343C14.3629 8.66156 14.5 8.49141 14.5 8.29466V5.92409C14.5 5.72734 14.3629 5.55719 14.1706 5.51532ZM13.6633 7.95746L12.6767 8.17194C12.5252 8.20494 12.4043 8.31902 12.3626 8.46834C12.2542 8.85724 12.0982 9.23332 11.8991 9.58612C11.8229 9.72124 11.8276 9.88744 11.9115 10.018L12.4579 10.8678L11.2585 12.0672L10.4086 11.5209C10.2781 11.437 10.1119 11.4323 9.97685 11.5085C9.62395 11.7076 9.24786 11.8636 8.85896 11.972C8.70964 12.0136 8.59557 12.1345 8.56256 12.2861L8.34808 13.2727H6.65192L6.43744 12.2861C6.40443 12.1345 6.29036 12.0136 6.14104 11.972C5.75214 11.8636 5.37605 11.7076 5.02325 11.5085C4.88814 11.4323 4.72194 11.4371 4.59142 11.5209L3.74162 12.0672L2.54224 10.8678L3.08847 10.018C3.17242 9.88744 3.17723 9.72124 3.10097 9.58612C2.90187 9.23332 2.74593 8.85724 2.63741 8.46834C2.59575 8.31902 2.47495 8.20494 2.32338 8.17194L1.33665 7.95746V6.26129L2.32327 6.04681C2.47484 6.01381 2.59575 5.89973 2.63741 5.75041C2.74582 5.36151 2.90176 4.98543 3.10086 4.63263C3.17712 4.49751 3.17242 4.33131 3.08847 4.20079L2.54213 3.351L3.74152 2.1515L4.59142 2.69785C4.72194 2.7818 4.88814 2.7865 5.02315 2.71024C5.37605 2.51114 5.75214 2.35519 6.14104 2.24678C6.29036 2.20512 6.40443 2.08421 6.43744 1.93265L6.65192 0.94603H8.34808L8.56256 1.93265C8.59557 2.08421 8.70964 2.20512 8.85896 2.24678C9.24786 2.35519 9.62395 2.51114 9.97675 2.71024C10.1119 2.7865 10.2781 2.78169 10.4086 2.69785L11.2584 2.1515L12.4578 3.351L11.9115 4.20079C11.8276 4.33131 11.8228 4.49751 11.899 4.63263C12.0982 4.98543 12.2541 5.36151 12.3626 5.75041C12.4043 5.89973 12.5251 6.01381 12.6766 6.04681L13.6633 6.26129V7.95746Z" fill="white"/>
</g>
<defs>
<clipPath id="clip0">
<rect width="14" height="14" fill="white" transform="translate(0.5 0.109375)"/>
</clipPath>
</defs>
</svg>
