<svg width="15" height="15" viewBox="0 0 15 15" fill="none" xmlns="http://www.w3.org/2000/svg">
<g clip-path="url(#clip0)">
<path d="M13.9531 9.61597H13.4062V8.16675C13.4062 7.86471 13.1614 7.61987 12.8594 7.61987H8.04688V6.71753H11.875C12.177 6.71753 12.4219 6.47269 12.4219 6.17065V1.79565C12.4219 1.49362 12.177 1.24878 11.875 1.24878H3.125C2.82296 1.24878 2.57812 1.49362 2.57812 1.79565V6.17065C2.57812 6.47269 2.82296 6.71753 3.125 6.71753H6.95312V7.61987H2.14062C1.83859 7.61987 1.59375 7.86471 1.59375 8.16675V9.61597H1.04688C0.744836 9.61597 0.5 9.8608 0.5 10.1628V12.3503C0.5 12.6524 0.744836 12.8972 1.04688 12.8972H3.23438C3.53641 12.8972 3.78125 12.6524 3.78125 12.3503V10.1628C3.78125 9.8608 3.53641 9.61597 3.23438 9.61597H2.6875V8.71362H6.95312V9.61597H6.40625C6.10421 9.61597 5.85938 9.8608 5.85938 10.1628V12.3503C5.85938 12.6524 6.10421 12.8972 6.40625 12.8972H8.59375C8.89579 12.8972 9.14062 12.6524 9.14062 12.3503V10.1628C9.14062 9.8608 8.89579 9.61597 8.59375 9.61597H8.04688V8.71362H12.3125V9.61597H11.7656C11.4636 9.61597 11.2188 9.8608 11.2188 10.1628V12.3503C11.2188 12.6524 11.4636 12.8972 11.7656 12.8972H13.9531C14.2552 12.8972 14.5 12.6524 14.5 12.3503V10.1628C14.5 9.8608 14.2552 9.61597 13.9531 9.61597ZM2.6875 11.8035H1.59375V10.7097H2.6875V11.8035ZM8.04688 11.8035H6.95312V10.7097H8.04688V11.8035ZM3.67188 5.62378V2.34253H11.3281V5.62378H3.67188ZM13.4062 11.8035H12.3125V10.7097H13.4062V11.8035Z" fill="white"/>
</g>
<defs>
<clipPath id="clip0">
<rect width="14" height="14" fill="white" transform="translate(0.5 0.072998)"/>
</clipPath>
</defs>
</svg>
