<svg width="209" height="210" viewBox="0 0 209 210" fill="none" xmlns="http://www.w3.org/2000/svg">
<g filter="url(#filter0_f)">
<path d="M46.9671 169.085C31.7129 153.83 23.1411 133.142 23.1364 111.57C23.1316 89.9971 31.6944 69.3056 46.942 54.0447C62.1895 38.7838 82.8736 30.203 104.446 30.1889C126.019 30.1748 146.714 38.7285 161.982 53.9694C177.249 69.2103 185.839 89.8906 185.863 111.463C185.886 133.036 177.341 153.735 162.107 169.009C146.873 184.283 126.196 192.882 104.624 192.915C83.0511 192.948 62.3484 184.412 47.0676 169.185" stroke="white" stroke-opacity="0.85" stroke-width="16.4575" stroke-linecap="round"/>
</g>
<path d="M46.9671 169.084C35.5882 157.706 27.8391 143.208 24.6997 127.425C21.5603 111.642 23.1715 95.2829 29.3297 80.4157C35.4879 65.5485 45.9164 52.8413 59.2965 43.901C72.6767 34.9607 88.4074 30.1889 104.5 30.1889C120.592 30.1889 136.322 34.9607 149.702 43.901C163.083 52.8413 173.511 65.5485 179.669 80.4157C185.827 95.2829 187.439 111.642 184.299 127.425C181.16 143.208 173.411 157.706 162.032 169.084" stroke="url(#paint0_linear)" stroke-width="24.5634" stroke-linecap="round"/>
<path d="M104.5 187.64C146.522 187.64 180.588 153.574 180.588 111.552C180.588 69.5303 146.522 35.4647 104.5 35.4647C62.478 35.4647 28.4124 69.5303 28.4124 111.552C28.4124 153.574 62.478 187.64 104.5 187.64Z" fill="white"/>
<path d="M77.152 130.829V135.56H75.5582V123.474H80.0158C81.3383 123.474 82.3732 123.812 83.1203 124.487C83.8729 125.162 84.2492 126.056 84.2492 127.168C84.2492 128.342 83.8812 129.246 83.1452 129.883C82.4147 130.514 81.366 130.829 79.9992 130.829H77.152ZM77.152 129.526H80.0158C80.868 129.526 81.521 129.327 81.9747 128.928C82.4285 128.524 82.6554 127.943 82.6554 127.185C82.6554 126.466 82.4285 125.89 81.9747 125.458C81.521 125.027 80.8984 124.803 80.1071 124.786H77.152V129.526ZM89.653 135.726C88.4355 135.726 87.445 135.328 86.6813 134.531C85.9176 133.729 85.5358 132.658 85.5358 131.319V131.036C85.5358 130.146 85.7046 129.351 86.0421 128.654C86.3852 127.951 86.8611 127.404 87.4699 127.011C88.0841 126.612 88.7482 126.413 89.462 126.413C90.6297 126.413 91.5372 126.798 92.1847 127.567C92.8322 128.336 93.1559 129.437 93.1559 130.87V131.51H87.0714C87.0936 132.395 87.3509 133.112 87.8434 133.66C88.3414 134.202 88.9723 134.473 89.736 134.473C90.2783 134.473 90.7376 134.362 91.1139 134.141C91.4902 133.92 91.8195 133.626 92.1017 133.261L93.0397 133.992C92.2871 135.148 91.1582 135.726 89.653 135.726ZM89.462 127.675C88.8423 127.675 88.3221 127.902 87.9015 128.355C87.4809 128.804 87.2208 129.434 87.1212 130.248H91.6203V130.132C91.576 129.351 91.3657 128.748 90.9894 128.322C90.6131 127.891 90.104 127.675 89.462 127.675ZM99.2819 127.957C99.0494 127.918 98.7977 127.899 98.5265 127.899C97.5193 127.899 96.8359 128.328 96.4762 129.185V135.56H94.9406V126.579H96.4347L96.4596 127.617C96.9632 126.814 97.6771 126.413 98.6012 126.413C98.9 126.413 99.1269 126.452 99.2819 126.529V127.957ZM104.138 134.473C104.686 134.473 105.164 134.307 105.574 133.975C105.983 133.643 106.21 133.228 106.255 132.73H107.707C107.679 133.245 107.502 133.734 107.176 134.199C106.849 134.664 106.412 135.035 105.864 135.311C105.322 135.588 104.747 135.726 104.138 135.726C102.915 135.726 101.941 135.32 101.216 134.506C100.497 133.687 100.137 132.569 100.137 131.153V130.895C100.137 130.021 100.297 129.244 100.618 128.563C100.939 127.882 101.399 127.354 101.996 126.977C102.599 126.601 103.311 126.413 104.13 126.413C105.137 126.413 105.972 126.715 106.636 127.318C107.306 127.921 107.663 128.704 107.707 129.667H106.255C106.21 129.086 105.989 128.61 105.59 128.239C105.198 127.863 104.711 127.675 104.13 127.675C103.349 127.675 102.743 127.957 102.312 128.521C101.886 129.08 101.672 129.891 101.672 130.953V131.244C101.672 132.279 101.886 133.076 102.312 133.635C102.738 134.194 103.346 134.473 104.138 134.473ZM113.161 135.726C111.943 135.726 110.953 135.328 110.189 134.531C109.425 133.729 109.044 132.658 109.044 131.319V131.036C109.044 130.146 109.212 129.351 109.55 128.654C109.893 127.951 110.369 127.404 110.978 127.011C111.592 126.612 112.256 126.413 112.97 126.413C114.138 126.413 115.045 126.798 115.693 127.567C116.34 128.336 116.664 129.437 116.664 130.87V131.51H110.579C110.601 132.395 110.859 133.112 111.351 133.66C111.849 134.202 112.48 134.473 113.244 134.473C113.786 134.473 114.245 134.362 114.622 134.141C114.998 133.92 115.327 133.626 115.61 133.261L116.547 133.992C115.795 135.148 114.666 135.726 113.161 135.726ZM112.97 127.675C112.35 127.675 111.83 127.902 111.409 128.355C110.989 128.804 110.729 129.434 110.629 130.248H115.128V130.132C115.084 129.351 114.874 128.748 114.497 128.322C114.121 127.891 113.612 127.675 112.97 127.675ZM119.901 126.579L119.951 127.708C120.637 126.845 121.534 126.413 122.64 126.413C124.538 126.413 125.496 127.484 125.512 129.625V135.56H123.977V129.617C123.971 128.97 123.822 128.491 123.528 128.181C123.241 127.871 122.79 127.716 122.175 127.716C121.677 127.716 121.24 127.849 120.864 128.115C120.488 128.38 120.194 128.729 119.984 129.161V135.56H118.448V126.579H119.901ZM129.912 124.404V126.579H131.589V127.766H129.912V133.336C129.912 133.696 129.986 133.967 130.136 134.149C130.285 134.326 130.54 134.415 130.9 134.415C131.077 134.415 131.32 134.382 131.63 134.315V135.56C131.226 135.671 130.833 135.726 130.451 135.726C129.765 135.726 129.248 135.519 128.899 135.104C128.55 134.689 128.376 134.099 128.376 133.336V127.766H126.741V126.579H128.376V124.404H129.912Z" fill="#888888"/>
<path d="M101.627 76.1313L91.0275 99.8969H87.6173L98.1818 76.9751H84.3302V74.3032H101.627V76.1313ZM106.813 87.0649L108.113 74.3032H121.227V77.3091H110.873L110.1 84.2876C111.354 83.5493 112.777 83.1801 114.371 83.1801C116.703 83.1801 118.555 83.9536 119.926 85.5005C121.297 87.0356 121.983 89.1157 121.983 91.7407C121.983 94.3774 121.268 96.4575 119.838 97.9809C118.42 99.4926 116.434 100.249 113.879 100.249C111.617 100.249 109.772 99.6216 108.342 98.3676C106.912 97.1137 106.098 95.3794 105.899 93.1645H108.975C109.174 94.6294 109.695 95.7368 110.539 96.4868C111.383 97.2251 112.496 97.5942 113.879 97.5942C115.391 97.5942 116.574 97.0786 117.43 96.0473C118.297 95.0161 118.731 93.5923 118.731 91.7758C118.731 90.0649 118.262 88.6938 117.324 87.6626C116.399 86.6196 115.162 86.0981 113.615 86.0981C112.197 86.0981 111.084 86.4087 110.276 87.0298L109.414 87.7329L106.813 87.0649Z" fill="#111111"/>
<defs>
<filter id="filter0_f" x="6.90762" y="13.9601" width="195.184" height="195.184" filterUnits="userSpaceOnUse" color-interpolation-filters="sRGB">
<feFlood flood-opacity="0" result="BackgroundImageFix"/>
<feBlend mode="normal" in="SourceGraphic" in2="BackgroundImageFix" result="shape"/>
<feGaussianBlur stdDeviation="4" result="effect1_foregroundBlur"/>
</filter>
<linearGradient id="paint0_linear" x1="23.1363" y1="169.084" x2="185.863" y2="169.084" gradientUnits="userSpaceOnUse">
<stop stop-color="#ABE5A1"/>
<stop offset="1" stop-color="#008FFB"/>
</linearGradient>
</defs>
</svg>
