<svg width="292" height="154" viewBox="0 0 292 154" fill="none" xmlns="http://www.w3.org/2000/svg">
<ellipse cx="46.1755" cy="108.548" rx="45.2376" ry="44.8392" fill="#4D96BE"/>
<ellipse cx="141.064" cy="77.0822" rx="76.9832" ry="76.3053" fill="#FF8396"/>
<ellipse cx="234.714" cy="98.1155" rx="56.3485" ry="55.8523" fill="#1AE2CA"/>
<path d="M122.031 79.6368C123.204 80.1702 124.1 80.8955 124.719 81.8128C125.359 82.7088 125.679 83.7648 125.679 84.9808C125.679 86.3462 125.295 87.5408 124.527 88.5648C123.78 89.5888 122.714 90.3782 121.327 90.9328C119.94 91.4662 118.33 91.7328 116.495 91.7328C114.66 91.7328 113.05 91.4662 111.663 90.9328C110.298 90.3782 109.242 89.5888 108.495 88.5648C107.748 87.5408 107.375 86.3462 107.375 84.9808C107.375 83.7648 107.684 82.7088 108.303 81.8128C108.922 80.8955 109.807 80.1702 110.959 79.6368C110.063 79.1462 109.37 78.5062 108.879 77.7168C108.41 76.9062 108.175 75.9782 108.175 74.9328C108.175 73.6742 108.516 72.5755 109.199 71.6368C109.903 70.6982 110.884 69.9728 112.143 69.4608C113.402 68.9488 114.852 68.6928 116.495 68.6928C118.159 68.6928 119.62 68.9488 120.879 69.4608C122.138 69.9728 123.119 70.6982 123.823 71.6368C124.527 72.5755 124.879 73.6742 124.879 74.9328C124.879 75.9782 124.634 76.8955 124.143 77.6848C123.652 78.4742 122.948 79.1248 122.031 79.6368ZM116.495 71.9568C115.194 71.9568 114.159 72.2342 113.391 72.7888C112.644 73.3435 112.271 74.1222 112.271 75.1248C112.271 76.0848 112.644 76.8528 113.391 77.4288C114.159 77.9835 115.194 78.2608 116.495 78.2608C117.818 78.2608 118.863 77.9835 119.631 77.4288C120.399 76.8528 120.783 76.0848 120.783 75.1248C120.783 74.1222 120.388 73.3435 119.599 72.7888C118.831 72.2342 117.796 71.9568 116.495 71.9568ZM116.495 88.4688C118.031 88.4688 119.247 88.1488 120.143 87.5088C121.039 86.8688 121.487 85.9835 121.487 84.8528C121.487 83.7435 121.039 82.8688 120.143 82.2288C119.247 81.5888 118.031 81.2688 116.495 81.2688C114.959 81.2688 113.754 81.5888 112.879 82.2288C112.004 82.8688 111.567 83.7435 111.567 84.8528C111.567 85.9835 112.004 86.8688 112.879 87.5088C113.754 88.1488 114.959 88.4688 116.495 88.4688ZM137.722 91.7328C135.93 91.7328 134.33 91.2848 132.922 90.3888C131.514 89.4715 130.405 88.1488 129.594 86.4208C128.783 84.6715 128.378 82.6022 128.378 80.2128C128.378 77.8235 128.783 75.7648 129.594 74.0368C130.405 72.2875 131.514 70.9648 132.922 70.0688C134.33 69.1515 135.93 68.6928 137.722 68.6928C139.514 68.6928 141.114 69.1515 142.522 70.0688C143.951 70.9648 145.071 72.2875 145.882 74.0368C146.693 75.7648 147.098 77.8235 147.098 80.2128C147.098 82.6022 146.693 84.6715 145.882 86.4208C145.071 88.1488 143.951 89.4715 142.522 90.3888C141.114 91.2848 139.514 91.7328 137.722 91.7328ZM137.722 88.1168C139.322 88.1168 140.581 87.4555 141.498 86.1328C142.437 84.8102 142.906 82.8368 142.906 80.2128C142.906 77.5888 142.437 75.6155 141.498 74.2928C140.581 72.9702 139.322 72.3088 137.722 72.3088C136.143 72.3088 134.885 72.9702 133.946 74.2928C133.029 75.6155 132.57 77.5888 132.57 80.2128C132.57 82.8368 133.029 84.8102 133.946 86.1328C134.885 87.4555 136.143 88.1168 137.722 88.1168ZM154.901 81.0768C153.301 81.0768 152.011 80.5115 151.029 79.3808C150.048 78.2502 149.557 76.7675 149.557 74.9328C149.557 73.0982 150.048 71.6155 151.029 70.4848C152.011 69.3542 153.301 68.7888 154.901 68.7888C156.501 68.7888 157.792 69.3542 158.773 70.4848C159.776 71.5942 160.277 73.0768 160.277 74.9328C160.277 76.7888 159.776 78.2822 158.773 79.4128C157.792 80.5222 156.501 81.0768 154.901 81.0768ZM168.341 69.0128H171.477L156.181 91.4128H153.045L168.341 69.0128ZM154.901 78.8368C155.776 78.8368 156.448 78.4955 156.917 77.8128C157.408 77.1302 157.653 76.1702 157.653 74.9328C157.653 73.6955 157.408 72.7355 156.917 72.0528C156.448 71.3702 155.776 71.0288 154.901 71.0288C154.069 71.0288 153.397 71.3808 152.885 72.0848C152.395 72.7675 152.149 73.7168 152.149 74.9328C152.149 76.1488 152.395 77.1088 152.885 77.8128C153.397 78.4955 154.069 78.8368 154.901 78.8368ZM169.589 91.6368C167.989 91.6368 166.699 91.0715 165.717 89.9408C164.736 88.8102 164.245 87.3275 164.245 85.4928C164.245 83.6582 164.736 82.1755 165.717 81.0448C166.699 79.9142 167.989 79.3488 169.589 79.3488C171.189 79.3488 172.48 79.9142 173.461 81.0448C174.464 82.1755 174.965 83.6582 174.965 85.4928C174.965 87.3275 174.464 88.8102 173.461 89.9408C172.48 91.0715 171.189 91.6368 169.589 91.6368ZM169.589 89.3968C170.443 89.3968 171.115 89.0555 171.605 88.3728C172.096 87.6688 172.341 86.7088 172.341 85.4928C172.341 84.2768 172.096 83.3275 171.605 82.6448C171.115 81.9408 170.443 81.5888 169.589 81.5888C168.736 81.5888 168.064 81.9302 167.573 82.6128C167.083 83.2955 166.837 84.2555 166.837 85.4928C166.837 86.7302 167.083 87.6902 167.573 88.3728C168.064 89.0555 168.736 89.3968 169.589 89.3968Z" fill="white"/>
<path d="M222.302 92.083V94.171L215.774 108.883H212.438L218.75 94.723H212.15V97.579H209.246V92.083H222.302ZM229.066 98.587C231.434 98.587 233.186 99.051 234.322 99.979C235.458 100.891 236.026 102.139 236.026 103.723C236.026 104.731 235.778 105.643 235.282 106.459C234.786 107.275 234.042 107.923 233.05 108.403C232.058 108.883 230.834 109.123 229.378 109.123C228.178 109.123 227.018 108.955 225.898 108.619C224.778 108.267 223.834 107.787 223.066 107.179L224.386 104.755C225.01 105.267 225.754 105.675 226.618 105.979C227.498 106.267 228.402 106.411 229.33 106.411C230.434 106.411 231.298 106.187 231.922 105.739C232.562 105.275 232.882 104.643 232.882 103.843C232.882 102.979 232.538 102.331 231.85 101.899C231.178 101.451 230.018 101.227 228.37 101.227H224.314L225.178 92.083H235.042V94.699H227.818L227.458 98.587H229.066ZM241.335 101.131C240.135 101.131 239.167 100.707 238.431 99.859C237.695 99.011 237.327 97.899 237.327 96.523C237.327 95.147 237.695 94.035 238.431 93.187C239.167 92.339 240.135 91.915 241.335 91.915C242.535 91.915 243.503 92.339 244.239 93.187C244.991 94.019 245.367 95.131 245.367 96.523C245.367 97.915 244.991 99.035 244.239 99.883C243.503 100.715 242.535 101.131 241.335 101.131ZM251.415 92.083H253.767L242.295 108.883H239.943L251.415 92.083ZM241.335 99.451C241.991 99.451 242.495 99.195 242.847 98.683C243.215 98.171 243.399 97.451 243.399 96.523C243.399 95.595 243.215 94.875 242.847 94.363C242.495 93.851 241.991 93.595 241.335 93.595C240.711 93.595 240.207 93.859 239.823 94.387C239.455 94.899 239.271 95.611 239.271 96.523C239.271 97.435 239.455 98.155 239.823 98.683C240.207 99.195 240.711 99.451 241.335 99.451ZM252.351 109.051C251.151 109.051 250.183 108.627 249.447 107.779C248.711 106.931 248.343 105.819 248.343 104.443C248.343 103.067 248.711 101.955 249.447 101.107C250.183 100.259 251.151 99.835 252.351 99.835C253.551 99.835 254.519 100.259 255.255 101.107C256.007 101.955 256.383 103.067 256.383 104.443C256.383 105.819 256.007 106.931 255.255 107.779C254.519 108.627 253.551 109.051 252.351 109.051ZM252.351 107.371C252.991 107.371 253.495 107.115 253.863 106.603C254.231 106.075 254.415 105.355 254.415 104.443C254.415 103.531 254.231 102.819 253.863 102.307C253.495 101.779 252.991 101.515 252.351 101.515C251.711 101.515 251.207 101.771 250.839 102.283C250.471 102.795 250.287 103.515 250.287 104.443C250.287 105.371 250.471 106.091 250.839 106.603C251.207 107.115 251.711 107.371 252.351 107.371Z" fill="white"/>
<path d="M30.6096 112.736H27.6336V116.552H24.6096V112.736H15.3936V110.576L23.6736 99.7523H27.0096L19.2096 110.096H24.7056V106.712H27.6336V110.096H30.6096V112.736ZM38.9307 116.792C37.5867 116.792 36.3867 116.456 35.3307 115.784C34.2747 115.096 33.4427 114.104 32.8347 112.808C32.2267 111.496 31.9227 109.944 31.9227 108.152C31.9227 106.36 32.2267 104.816 32.8347 103.52C33.4427 102.208 34.2747 101.216 35.3307 100.544C36.3867 99.8563 37.5867 99.5123 38.9307 99.5123C40.2747 99.5123 41.4747 99.8563 42.5307 100.544C43.6027 101.216 44.4427 102.208 45.0507 103.52C45.6587 104.816 45.9627 106.36 45.9627 108.152C45.9627 109.944 45.6587 111.496 45.0507 112.808C44.4427 114.104 43.6027 115.096 42.5307 115.784C41.4747 116.456 40.2747 116.792 38.9307 116.792ZM38.9307 114.08C40.1307 114.08 41.0747 113.584 41.7627 112.592C42.4667 111.6 42.8187 110.12 42.8187 108.152C42.8187 106.184 42.4667 104.704 41.7627 103.712C41.0747 102.72 40.1307 102.224 38.9307 102.224C37.7467 102.224 36.8027 102.72 36.0987 103.712C35.4107 104.704 35.0667 106.184 35.0667 108.152C35.0667 110.12 35.4107 111.6 36.0987 112.592C36.8027 113.584 37.7467 114.08 38.9307 114.08ZM51.8151 108.8C50.6151 108.8 49.6471 108.376 48.9111 107.528C48.1751 106.68 47.8071 105.568 47.8071 104.192C47.8071 102.816 48.1751 101.704 48.9111 100.856C49.6471 100.008 50.6151 99.5843 51.8151 99.5843C53.0151 99.5843 53.9831 100.008 54.7191 100.856C55.4711 101.688 55.8471 102.8 55.8471 104.192C55.8471 105.584 55.4711 106.704 54.7191 107.552C53.9831 108.384 53.0151 108.8 51.8151 108.8ZM61.8951 99.7523H64.2471L52.7751 116.552H50.4231L61.8951 99.7523ZM51.8151 107.12C52.4711 107.12 52.9751 106.864 53.3271 106.352C53.6951 105.84 53.8791 105.12 53.8791 104.192C53.8791 103.264 53.6951 102.544 53.3271 102.032C52.9751 101.52 52.4711 101.264 51.8151 101.264C51.1911 101.264 50.6871 101.528 50.3031 102.056C49.9351 102.568 49.7511 103.28 49.7511 104.192C49.7511 105.104 49.9351 105.824 50.3031 106.352C50.6871 106.864 51.1911 107.12 51.8151 107.12ZM62.8311 116.72C61.6311 116.72 60.6631 116.296 59.9271 115.448C59.1911 114.6 58.8231 113.488 58.8231 112.112C58.8231 110.736 59.1911 109.624 59.9271 108.776C60.6631 107.928 61.6311 107.504 62.8311 107.504C64.0311 107.504 64.9991 107.928 65.7351 108.776C66.4871 109.624 66.8631 110.736 66.8631 112.112C66.8631 113.488 66.4871 114.6 65.7351 115.448C64.9991 116.296 64.0311 116.72 62.8311 116.72ZM62.8311 115.04C63.4711 115.04 63.9751 114.784 64.3431 114.272C64.7111 113.744 64.8951 113.024 64.8951 112.112C64.8951 111.2 64.7111 110.488 64.3431 109.976C63.9751 109.448 63.4711 109.184 62.8311 109.184C62.1911 109.184 61.6871 109.44 61.3191 109.952C60.9511 110.464 60.7671 111.184 60.7671 112.112C60.7671 113.04 60.9511 113.76 61.3191 114.272C61.6871 114.784 62.1911 115.04 62.8311 115.04Z" fill="white"/>
</svg>
