<svg width="308" height="210" viewBox="0 0 308 210" fill="none" xmlns="http://www.w3.org/2000/svg">
<path d="M149.717 16.5946L227.442 61.4696V151.219L149.717 196.094L71.9911 151.219V61.4696L149.717 16.5946Z" fill="white" fill-opacity="0.2" stroke="white" stroke-opacity="0.2"/>
<path d="M149.717 39.0321L208.011 72.6883V140.001L149.717 173.657L91.4225 140.001V72.6883L149.717 39.0321Z" fill="white" fill-opacity="0.2" stroke="white" stroke-opacity="0.2"/>
<path d="M149.717 61.4696L188.58 83.907V128.782L149.717 151.219L110.854 128.782V83.907L149.717 61.4696Z" fill="white" fill-opacity="0.2" stroke="white" stroke-opacity="0.2"/>
<path d="M149.717 83.907L169.148 95.1258V117.563L149.717 128.782L130.285 117.563V95.1258L149.717 83.907Z" fill="white" fill-opacity="0.2" stroke="white" stroke-opacity="0.2"/>
<path d="M149.717 16.5946V106.345" stroke="white"/>
<path d="M227.442 61.4696L149.717 106.345" stroke="white"/>
<path d="M227.442 151.219L149.717 106.345" stroke="white"/>
<path d="M149.717 196.094V106.345" stroke="white"/>
<path d="M71.9911 151.219L149.717 106.345" stroke="white"/>
<path d="M71.9911 61.4696L149.717 106.345" stroke="white"/>
<path d="M145.623 2.17969H146.66V7.71729C146.66 8.46566 146.434 9.05111 145.983 9.47363C145.535 9.89616 144.937 10.1074 144.189 10.1074C143.412 10.1074 142.807 9.90869 142.374 9.51123C141.94 9.11377 141.724 8.55697 141.724 7.84082H142.755C142.755 8.28841 142.877 8.63753 143.12 8.88818C143.367 9.13883 143.723 9.26416 144.189 9.26416C144.615 9.26416 144.959 9.12988 145.22 8.86133C145.485 8.59277 145.619 8.2168 145.623 7.7334V2.17969ZM151.848 10C151.791 9.88542 151.744 9.68132 151.708 9.3877C151.247 9.86751 150.695 10.1074 150.054 10.1074C149.481 10.1074 149.01 9.94629 148.642 9.62402C148.276 9.29818 148.094 8.88639 148.094 8.38867C148.094 7.78353 148.323 7.31445 148.781 6.98145C149.243 6.64486 149.891 6.47656 150.726 6.47656H151.692V6.02002C151.692 5.67269 151.589 5.39697 151.381 5.19287C151.173 4.98519 150.867 4.88135 150.462 4.88135C150.108 4.88135 149.811 4.97087 149.571 5.1499C149.331 5.32894 149.211 5.54557 149.211 5.7998H148.212C148.212 5.50977 148.314 5.23047 148.518 4.96191C148.726 4.68978 149.005 4.47493 149.356 4.31738C149.71 4.15983 150.099 4.08105 150.521 4.08105C151.191 4.08105 151.716 4.24935 152.095 4.58594C152.475 4.91895 152.672 5.37907 152.686 5.96631V8.64111C152.686 9.17464 152.754 9.59896 152.89 9.91406V10H151.848ZM150.199 9.24268C150.511 9.24268 150.806 9.16211 151.085 9.00098C151.365 8.83984 151.567 8.63037 151.692 8.37256V7.18018H150.914C149.696 7.18018 149.087 7.53646 149.087 8.24902C149.087 8.56055 149.191 8.80404 149.399 8.97949C149.607 9.15495 149.873 9.24268 150.199 9.24268ZM155.184 4.18848L155.216 4.91895C155.66 4.36035 156.24 4.08105 156.956 4.08105C158.184 4.08105 158.804 4.77393 158.814 6.15967V10H157.821V6.1543C157.817 5.73535 157.721 5.42562 157.531 5.2251C157.345 5.02458 157.053 4.92432 156.655 4.92432C156.333 4.92432 156.05 5.01025 155.807 5.18213C155.563 5.354 155.373 5.57959 155.237 5.85889V10H154.244V4.18848H155.184Z" fill="white"/>
<path d="M240.221 59.5464H236.939V63H235.908V55.1797H240.752V56.0283H236.939V58.7031H240.221V59.5464ZM244.125 63.1074C243.338 63.1074 242.697 62.8496 242.203 62.334C241.708 61.8148 241.461 61.1219 241.461 60.2554V60.0728C241.461 59.4963 241.571 58.9824 241.789 58.5312C242.011 58.0765 242.319 57.722 242.713 57.4678C243.11 57.21 243.54 57.0811 244.002 57.0811C244.757 57.0811 245.345 57.3299 245.764 57.8276C246.183 58.3254 246.392 59.0379 246.392 59.9653V60.3789H242.455C242.469 60.9518 242.636 61.4155 242.955 61.77C243.277 62.1209 243.685 62.2964 244.179 62.2964C244.53 62.2964 244.827 62.2248 245.071 62.0815C245.314 61.9383 245.527 61.7485 245.71 61.5122L246.317 61.9849C245.83 62.7332 245.099 63.1074 244.125 63.1074ZM244.002 57.8975C243.601 57.8975 243.264 58.0443 242.992 58.3379C242.72 58.6279 242.552 59.0361 242.487 59.5625H245.398V59.4873C245.37 58.9824 245.234 58.5921 244.99 58.3164C244.747 58.0371 244.417 57.8975 244.002 57.8975ZM252.467 60.1587C252.467 61.0467 252.263 61.7611 251.854 62.3018C251.446 62.8389 250.898 63.1074 250.211 63.1074C249.477 63.1074 248.909 62.8478 248.508 62.3286L248.46 63H247.547V54.75H248.541V57.8276C248.942 57.3299 249.495 57.0811 250.2 57.0811C250.906 57.0811 251.459 57.3478 251.86 57.8813C252.264 58.4149 252.467 59.1453 252.467 60.0728V60.1587ZM251.473 60.0459C251.473 59.3691 251.342 58.8464 251.081 58.4775C250.82 58.1087 250.444 57.9243 249.953 57.9243C249.298 57.9243 248.827 58.2287 248.541 58.8374V61.3511C248.845 61.9598 249.319 62.2642 249.964 62.2642C250.44 62.2642 250.811 62.0798 251.076 61.7109C251.341 61.3421 251.473 60.7871 251.473 60.0459Z" fill="white"/>
<path d="M237.24 145.18L239.796 151.561L242.353 145.18H243.69V153H242.659V149.955L242.756 146.667L240.188 153H239.399L236.837 146.684L236.939 149.955V153H235.908V145.18H237.24ZM248.943 153C248.886 152.885 248.84 152.681 248.804 152.388C248.342 152.868 247.79 153.107 247.149 153.107C246.576 153.107 246.106 152.946 245.737 152.624C245.372 152.298 245.189 151.886 245.189 151.389C245.189 150.784 245.418 150.314 245.876 149.981C246.338 149.645 246.986 149.477 247.821 149.477H248.788V149.02C248.788 148.673 248.684 148.397 248.476 148.193C248.268 147.985 247.962 147.881 247.558 147.881C247.203 147.881 246.906 147.971 246.666 148.15C246.426 148.329 246.306 148.546 246.306 148.8H245.307C245.307 148.51 245.409 148.23 245.613 147.962C245.821 147.69 246.1 147.475 246.451 147.317C246.806 147.16 247.194 147.081 247.617 147.081C248.286 147.081 248.811 147.249 249.19 147.586C249.57 147.919 249.767 148.379 249.781 148.966V151.641C249.781 152.175 249.849 152.599 249.985 152.914V153H248.943ZM247.294 152.243C247.606 152.243 247.901 152.162 248.181 152.001C248.46 151.84 248.662 151.63 248.788 151.373V150.18H248.009C246.791 150.18 246.183 150.536 246.183 151.249C246.183 151.561 246.286 151.804 246.494 151.979C246.702 152.155 246.969 152.243 247.294 152.243ZM254.148 148.08C253.998 148.055 253.835 148.042 253.659 148.042C253.007 148.042 252.565 148.32 252.333 148.875V153H251.339V147.188H252.306L252.322 147.86C252.648 147.341 253.11 147.081 253.708 147.081C253.901 147.081 254.048 147.106 254.148 147.156V148.08Z" fill="white"/>
<path d="M145.686 204.959H142.41L141.674 207H140.61L143.597 199.18H144.499L147.491 207H146.433L145.686 204.959ZM142.721 204.11H145.38L144.048 200.453L142.721 204.11ZM153.297 204.159C153.297 205.043 153.095 205.756 152.69 206.296C152.285 206.837 151.737 207.107 151.046 207.107C150.341 207.107 149.786 206.884 149.381 206.436V209.234H148.388V201.188H149.295L149.344 201.833C149.748 201.332 150.311 201.081 151.03 201.081C151.729 201.081 152.28 201.344 152.685 201.871C153.093 202.397 153.297 203.129 153.297 204.067V204.159ZM152.303 204.046C152.303 203.391 152.164 202.873 151.884 202.494C151.605 202.114 151.222 201.924 150.735 201.924C150.133 201.924 149.682 202.191 149.381 202.725V205.501C149.679 206.031 150.133 206.296 150.746 206.296C151.222 206.296 151.6 206.108 151.879 205.732C152.162 205.353 152.303 204.791 152.303 204.046ZM157.374 202.08C157.223 202.055 157.06 202.042 156.885 202.042C156.233 202.042 155.791 202.32 155.558 202.875V207H154.564V201.188H155.531L155.547 201.86C155.873 201.341 156.335 201.081 156.933 201.081C157.126 201.081 157.273 201.106 157.374 201.156V202.08Z" fill="white"/>
<path d="M46.5288 145.18L49.0854 151.561L51.6421 145.18H52.9795V153H51.9482V149.955L52.0449 146.667L49.4775 153H48.688L46.126 146.684L46.228 149.955V153H45.1968V145.18H46.5288ZM58.2324 153C58.1751 152.885 58.1286 152.681 58.0928 152.388C57.6309 152.868 57.0794 153.107 56.4385 153.107C55.8656 153.107 55.3947 152.946 55.0259 152.624C54.6606 152.298 54.478 151.886 54.478 151.389C54.478 150.784 54.7072 150.314 55.1655 149.981C55.6274 149.645 56.2756 149.477 57.1099 149.477H58.0767V149.02C58.0767 148.673 57.9728 148.397 57.7651 148.193C57.5575 147.985 57.2513 147.881 56.8467 147.881C56.4922 147.881 56.195 147.971 55.9551 148.15C55.7152 148.329 55.5952 148.546 55.5952 148.8H54.5962C54.5962 148.51 54.6982 148.23 54.9023 147.962C55.11 147.69 55.3893 147.475 55.7402 147.317C56.0947 147.16 56.4832 147.081 56.9058 147.081C57.5754 147.081 58.0999 147.249 58.4795 147.586C58.859 147.919 59.056 148.379 59.0703 148.966V151.641C59.0703 152.175 59.1383 152.599 59.2744 152.914V153H58.2324ZM56.5835 152.243C56.895 152.243 57.1904 152.162 57.4697 152.001C57.749 151.84 57.9513 151.63 58.0767 151.373V150.18H57.2979C56.0804 150.18 55.4717 150.536 55.4717 151.249C55.4717 151.561 55.5755 151.804 55.7832 151.979C55.9909 152.155 56.2576 152.243 56.5835 152.243ZM62.4434 151.544L63.7969 147.188H64.8604L62.5239 153.897C62.1623 154.864 61.5876 155.347 60.7998 155.347L60.6118 155.331L60.2412 155.261V154.456L60.5098 154.477C60.8464 154.477 61.1077 154.409 61.2939 154.273C61.4837 154.137 61.6395 153.888 61.7612 153.526L61.9814 152.936L59.9082 147.188H60.9932L62.4434 151.544Z" fill="white"/>
<path d="M50.9761 55.1797H52.0127V60.7173C52.0127 61.4657 51.7871 62.0511 51.3359 62.4736C50.8883 62.8962 50.2904 63.1074 49.542 63.1074C48.765 63.1074 48.1598 62.9087 47.7266 62.5112C47.2933 62.1138 47.0767 61.557 47.0767 60.8408H48.1079C48.1079 61.2884 48.2297 61.6375 48.4731 61.8882C48.7202 62.1388 49.0765 62.2642 49.542 62.2642C49.9681 62.2642 50.3118 62.1299 50.5732 61.8613C50.8382 61.5928 50.9725 61.2168 50.9761 60.7334V55.1797ZM57.2012 62.4253C56.8145 62.88 56.2469 63.1074 55.4985 63.1074C54.8791 63.1074 54.4064 62.9284 54.0806 62.5703C53.7583 62.2087 53.5954 61.6751 53.5918 60.9697V57.1885H54.5854V60.9429C54.5854 61.8237 54.9435 62.2642 55.6597 62.2642C56.4188 62.2642 56.9237 61.9813 57.1743 61.4155V57.1885H58.168V63H57.2227L57.2012 62.4253ZM60.6226 57.1885L60.6548 57.9189C61.0988 57.3604 61.6789 57.0811 62.395 57.0811C63.6232 57.0811 64.2427 57.7739 64.2534 59.1597V63H63.2598V59.1543C63.2562 58.7354 63.1595 58.4256 62.9697 58.2251C62.7835 58.0246 62.4917 57.9243 62.0942 57.9243C61.772 57.9243 61.4891 58.0103 61.2456 58.1821C61.0021 58.354 60.8123 58.5796 60.6763 58.8589V63H59.6826V57.1885H60.6226Z" fill="white"/>
<path d="M147.456 22.8816H146.457V16.2591L144.453 16.9949V16.0926L147.3 15.0237H147.456V22.8816ZM155.491 22.8816H150.367V22.1673L153.074 19.1595C153.475 18.7047 153.751 18.3359 153.901 18.053C154.055 17.7666 154.132 17.4712 154.132 17.1668C154.132 16.7586 154.008 16.4238 153.761 16.1624C153.514 15.901 153.185 15.7703 152.773 15.7703C152.279 15.7703 151.894 15.9117 151.618 16.1946C151.346 16.4739 151.21 16.8642 151.21 17.3655H150.216C150.216 16.6458 150.447 16.0639 150.909 15.6199C151.375 15.1759 151.996 14.9539 152.773 14.9539C153.5 14.9539 154.075 15.1455 154.497 15.5286C154.92 15.9082 155.131 16.4148 155.131 17.0486C155.131 17.8185 154.64 18.7351 153.659 19.7986L151.564 22.0706H155.491V22.8816ZM152.182 32.5462C152.182 33.7099 151.983 34.5747 151.586 35.1404C151.189 35.7062 150.567 35.9891 149.722 35.9891C148.888 35.9891 148.27 35.7133 147.869 35.1619C147.468 34.6069 147.26 33.7797 147.246 32.6805V31.3538C147.246 30.2044 147.445 29.3504 147.842 28.7918C148.24 28.2332 148.863 27.9539 149.711 27.9539C150.553 27.9539 151.172 28.2242 151.57 28.7649C151.967 29.302 152.171 30.1328 152.182 31.2571V32.5462ZM151.189 31.1873C151.189 30.3458 151.07 29.7335 150.834 29.3504C150.598 28.9637 150.224 28.7703 149.711 28.7703C149.203 28.7703 148.832 28.9619 148.6 29.345C148.367 29.7281 148.247 30.3172 148.24 31.1121V32.7019C148.24 33.547 148.362 34.1718 148.605 34.5765C148.852 34.9775 149.224 35.178 149.722 35.178C150.213 35.178 150.576 34.9882 150.813 34.6087C151.052 34.2291 151.178 33.6311 151.189 32.8147V31.1873Z" fill="#373D3F"/>
<path d="M151.086 41.8816C150.879 42.1287 150.63 42.3274 150.34 42.4778C150.053 42.6282 149.738 42.7034 149.395 42.7034C148.943 42.7034 148.549 42.5924 148.213 42.3704C147.88 42.1484 147.622 41.8368 147.439 41.4358C147.257 41.0312 147.166 40.5854 147.166 40.0984C147.166 39.5756 147.264 39.1047 147.461 38.6858C147.661 38.2669 147.944 37.9464 148.31 37.7244C148.675 37.5024 149.101 37.3914 149.588 37.3914C150.361 37.3914 150.97 37.6814 151.414 38.2615C151.862 38.838 152.085 39.6257 152.085 40.6248V40.9148C152.085 42.4366 151.785 43.5484 151.183 44.2503C150.582 44.9485 149.674 45.3066 148.46 45.3245H148.267V44.4866H148.476C149.296 44.4723 149.926 44.2592 150.367 43.8474C150.807 43.4321 151.047 42.7768 151.086 41.8816ZM149.556 41.8816C149.889 41.8816 150.195 41.7795 150.474 41.5754C150.757 41.3713 150.963 41.1189 151.092 40.8181V40.4207C151.092 39.769 150.95 39.239 150.667 38.8308C150.385 38.4226 150.027 38.2185 149.593 38.2185C149.156 38.2185 148.806 38.3868 148.541 38.7234C148.276 39.0564 148.143 39.4968 148.143 40.0447C148.143 40.5782 148.27 41.0186 148.524 41.366C148.782 41.7097 149.126 41.8816 149.556 41.8816ZM152.182 54.9837C152.182 56.1474 151.983 57.0121 151.586 57.5779C151.188 58.1436 150.567 58.4265 149.722 58.4265C148.888 58.4265 148.27 58.1508 147.869 57.5994C147.468 57.0444 147.26 56.2172 147.246 55.1179V53.7913C147.246 52.6419 147.445 51.7878 147.842 51.2293C148.24 50.6707 148.863 50.3914 149.711 50.3914C150.553 50.3914 151.172 50.6617 151.57 51.2024C151.967 51.7395 152.171 52.5702 152.182 53.6946V54.9837ZM151.188 53.6248C151.188 52.7833 151.07 52.171 150.834 51.7878C150.598 51.4011 150.223 51.2078 149.711 51.2078C149.203 51.2078 148.832 51.3993 148.6 51.7825C148.367 52.1656 148.247 52.7546 148.24 53.5496V55.1394C148.24 55.9845 148.361 56.6093 148.605 57.0139C148.852 57.415 149.224 57.6155 149.722 57.6155C150.213 57.6155 150.576 57.4257 150.813 57.0462C151.052 56.6666 151.178 56.0686 151.188 55.2522V53.6248Z" fill="#373D3F"/>
<path d="M151.178 59.9309V60.7741H150.995C150.222 60.7885 149.606 61.0176 149.147 61.4616C148.689 61.9056 148.424 62.5305 148.353 63.3362C148.764 62.8635 149.327 62.6272 150.039 62.6272C150.719 62.6272 151.262 62.8671 151.667 63.3469C152.075 63.8267 152.279 64.4462 152.279 65.2053C152.279 66.011 152.059 66.6555 151.618 67.1389C151.181 67.6223 150.594 67.864 149.856 67.864C149.108 67.864 148.501 67.5775 148.036 67.0046C147.57 66.4281 147.337 65.6869 147.337 64.781V64.3996C147.337 62.9602 147.644 61.8609 148.256 61.1018C148.872 60.3391 149.787 59.9488 151 59.9309H151.178ZM149.873 63.4543C149.532 63.4543 149.219 63.5564 148.933 63.7605C148.646 63.9646 148.447 64.2206 148.336 64.5285V64.8938C148.336 65.5383 148.481 66.0575 148.771 66.4514C149.062 66.8453 149.423 67.0422 149.856 67.0422C150.304 67.0422 150.655 66.8775 150.909 66.5481C151.167 66.2186 151.296 65.7872 151.296 65.2536C151.296 64.7165 151.165 64.2833 150.904 63.9538C150.646 63.6208 150.302 63.4543 149.873 63.4543ZM152.182 77.4211C152.182 78.5848 151.983 79.4496 151.586 80.0154C151.188 80.5811 150.567 80.864 149.722 80.864C148.888 80.864 148.27 80.5883 147.869 80.0368C147.468 79.4818 147.26 78.6547 147.246 77.5554V76.2287C147.246 75.0793 147.445 74.2253 147.842 73.6667C148.24 73.1081 148.863 72.8288 149.711 72.8288C150.553 72.8288 151.172 73.0992 151.57 73.6399C151.967 74.177 152.171 75.0077 152.182 76.132V77.4211ZM151.188 76.0622C151.188 75.2208 151.07 74.6084 150.834 74.2253C150.598 73.8386 150.223 73.6452 149.711 73.6452C149.203 73.6452 148.832 73.8368 148.6 74.2199C148.367 74.6031 148.247 75.1921 148.24 75.987V77.5769C148.24 78.4219 148.361 79.0468 148.605 79.4514C148.852 79.8524 149.224 80.0529 149.722 80.0529C150.213 80.0529 150.576 79.8632 150.813 79.4836C151.052 79.1041 151.178 78.5061 151.188 77.6897V76.0622Z" fill="#373D3F"/>
<path d="M148.723 85.8005H149.47C149.939 85.7933 150.308 85.6698 150.576 85.4299C150.845 85.19 150.979 84.8659 150.979 84.4577C150.979 83.541 150.522 83.0827 149.609 83.0827C149.18 83.0827 148.836 83.2062 148.578 83.4533C148.324 83.6968 148.197 84.0209 148.197 84.4255H147.203C147.203 83.806 147.429 83.2922 147.88 82.884C148.335 82.4722 148.911 82.2663 149.609 82.2663C150.347 82.2663 150.925 82.4614 151.344 82.8517C151.763 83.242 151.973 83.7845 151.973 84.4792C151.973 84.8194 151.862 85.1488 151.64 85.4675C151.421 85.7862 151.122 86.0243 150.743 86.1818C151.172 86.3179 151.504 86.5435 151.736 86.8586C151.973 87.1737 152.091 87.5586 152.091 88.0134C152.091 88.7152 151.862 89.272 151.403 89.6838C150.945 90.0956 150.349 90.3015 149.615 90.3015C148.881 90.3015 148.283 90.1027 147.821 89.7053C147.362 89.3078 147.133 88.7832 147.133 88.1315H148.132C148.132 88.5433 148.267 88.8727 148.535 89.1198C148.804 89.3669 149.164 89.4904 149.615 89.4904C150.095 89.4904 150.462 89.3651 150.716 89.1144C150.97 88.8638 151.097 88.5039 151.097 88.0349C151.097 87.5801 150.958 87.231 150.678 86.9875C150.399 86.744 149.996 86.6187 149.47 86.6115H148.723V85.8005ZM152.182 99.8586C152.182 101.022 151.983 101.887 151.586 102.453C151.188 103.019 150.567 103.301 149.722 103.301C148.888 103.301 148.27 103.026 147.869 102.474C147.468 101.919 147.26 101.092 147.246 99.9929V98.6662C147.246 97.5168 147.445 96.6628 147.842 96.1042C148.24 95.5456 148.863 95.2663 149.711 95.2663C150.553 95.2663 151.172 95.5366 151.57 96.0773C151.967 96.6144 152.171 97.4452 152.182 98.5695V99.8586ZM151.188 98.4997C151.188 97.6582 151.07 97.0459 150.834 96.6628C150.598 96.2761 150.223 96.0827 149.711 96.0827C149.203 96.0827 148.832 96.2743 148.6 96.6574C148.367 97.0405 148.247 97.6296 148.24 98.4245V100.014C148.24 100.859 148.361 101.484 148.605 101.889C148.852 102.29 149.224 102.49 149.722 102.49C150.213 102.49 150.576 102.301 150.813 101.921C151.052 101.542 151.178 100.944 151.188 100.127V98.4997Z" fill="#373D3F"/>
<path d="M152.182 109.296C152.182 110.46 151.983 111.325 151.586 111.89C151.188 112.456 150.567 112.739 149.722 112.739C148.888 112.739 148.27 112.463 147.869 111.912C147.468 111.357 147.26 110.53 147.246 109.43V108.104C147.246 106.954 147.445 106.1 147.842 105.542C148.24 104.983 148.863 104.704 149.711 104.704C150.553 104.704 151.172 104.974 151.57 105.515C151.967 106.052 152.171 106.883 152.182 108.007V109.296ZM151.188 107.937C151.188 107.096 151.07 106.483 150.834 106.1C150.598 105.714 150.223 105.52 149.711 105.52C149.203 105.52 148.832 105.712 148.6 106.095C148.367 106.478 148.247 107.067 148.24 107.862V109.452C148.24 110.297 148.361 110.922 148.605 111.326C148.852 111.727 149.224 111.928 149.722 111.928C150.213 111.928 150.576 111.738 150.812 111.359C151.052 110.979 151.178 110.381 151.188 109.565V107.937Z" fill="#373D3F"/>
<path d="M149.717 46.5113L182.103 87.6466L169.148 117.563L149.717 136.261L84.9454 143.74L136.763 98.8654L149.717 46.5113Z" stroke="#008FFB" stroke-width="2"/>
<g filter="url(#filter0_f)">
<path d="M149.717 46.5113L182.103 87.6466L169.148 117.563L149.717 136.261L84.9454 143.74L136.763 98.8654L149.717 46.5113Z" fill="#008FFB" fill-opacity="0.1"/>
</g>
<path d="M149.717 91.3862L169.148 95.1258L175.625 121.303L149.717 166.178L136.762 113.824L97.8997 76.4279L149.717 91.3862Z" stroke="#00E396" stroke-width="2"/>
<g filter="url(#filter1_f)">
<path d="M149.717 91.3862L169.148 95.1258L175.625 121.303L149.717 166.178L136.762 113.824L97.8997 76.4279L149.717 91.3862Z" fill="#00E396" fill-opacity="0.1"/>
</g>
<path d="M149.717 73.4362L198.943 77.9237L200.238 135.513L149.717 116.067L121.865 122.425L143.24 102.605L149.717 73.4362Z" stroke="#FEB019" stroke-width="2"/>
<g filter="url(#filter2_f)">
<path d="M141.262 76L175.808 80.3373L176.717 136L141.262 117.205L121.717 123.349L136.717 104.193L141.262 76Z" fill="#FEB019" fill-opacity="0.1"/>
</g>
<defs>
<filter id="filter0_f" x="82.9454" y="44.5113" width="101.157" height="101.229" filterUnits="userSpaceOnUse" color-interpolation-filters="sRGB">
<feFlood flood-opacity="0" result="BackgroundImageFix"/>
<feBlend mode="normal" in="SourceGraphic" in2="BackgroundImageFix" result="shape"/>
<feGaussianBlur stdDeviation="1" result="effect1_foregroundBlur"/>
</filter>
<filter id="filter1_f" x="95.8997" y="74.4279" width="81.7257" height="93.7499" filterUnits="userSpaceOnUse" color-interpolation-filters="sRGB">
<feFlood flood-opacity="0" result="BackgroundImageFix"/>
<feBlend mode="normal" in="SourceGraphic" in2="BackgroundImageFix" result="shape"/>
<feGaussianBlur stdDeviation="1" result="effect1_foregroundBlur"/>
</filter>
<filter id="filter2_f" x="119.717" y="74" width="59" height="64" filterUnits="userSpaceOnUse" color-interpolation-filters="sRGB">
<feFlood flood-opacity="0" result="BackgroundImageFix"/>
<feBlend mode="normal" in="SourceGraphic" in2="BackgroundImageFix" result="shape"/>
<feGaussianBlur stdDeviation="1" result="effect1_foregroundBlur"/>
</filter>
</defs>
</svg>
