<svg width="95" height="95" viewBox="0 0 95 95" fill="none" xmlns="http://www.w3.org/2000/svg">
<path d="M94.5884 47.5C94.5884 73.4574 73.5458 94.5 47.5884 94.5C21.631 94.5 0.588379 73.4574 0.588379 47.5C0.588379 21.5426 21.631 0.5 47.5884 0.5C73.5458 0.5 94.5884 21.5426 94.5884 47.5ZM16.077 47.5C16.077 64.9032 30.1851 79.0114 47.5884 79.0114C64.9916 79.0114 79.0997 64.9032 79.0997 47.5C79.0997 30.0968 64.9916 15.9886 47.5884 15.9886C30.1851 15.9886 16.077 30.0968 16.077 47.5Z" fill="#59CBFF"/>
<path d="M94.5884 47.5C94.5884 73.4574 73.5458 94.5 47.5884 94.5C21.631 94.5 0.588379 73.4574 0.588379 47.5C0.588379 21.5426 21.631 0.5 47.5884 0.5C73.5458 0.5 94.5884 21.5426 94.5884 47.5ZM16.077 47.5C16.077 64.9032 30.1851 79.0114 47.5884 79.0114C64.9916 79.0114 79.0997 64.9032 79.0997 47.5C79.0997 30.0968 64.9916 15.9886 47.5884 15.9886C30.1851 15.9886 16.077 30.0968 16.077 47.5Z" fill="#59CBFF"/>
<path d="M91.3626 64.6118C89.0746 70.4649 85.636 75.7997 81.2502 80.3007C76.8643 84.8016 71.6204 88.3773 65.8285 90.8162C60.0367 93.2551 53.8145 94.5078 47.5301 94.5C41.2457 94.4922 35.0267 93.2241 29.2409 90.7709C23.4551 88.3176 18.22 84.7289 13.8454 80.2171C9.47074 75.7053 6.04535 70.362 3.77183 64.5032C1.49831 58.6445 0.422829 52.3893 0.609009 46.1076C0.795188 39.8259 2.23924 33.6454 4.85576 27.9316L18.9381 34.3803C17.1839 38.2111 16.2157 42.3549 16.0909 46.5665C15.966 50.778 16.6871 54.9719 18.2114 58.8999C19.7357 62.8279 22.0322 66.4104 24.9652 69.4353C27.8982 72.4603 31.4081 74.8663 35.2872 76.5111C39.1663 78.156 43.3359 79.0061 47.5493 79.0113C51.7627 79.0166 55.9344 78.1767 59.8176 76.5416C63.7008 74.9064 67.2166 72.509 70.1571 69.4914C73.0975 66.4737 75.403 62.8969 76.937 58.9727L91.3626 64.6118Z" fill="#59CBFF"/>
<path d="M91.3626 64.6118C89.0746 70.4649 85.636 75.7997 81.2502 80.3007C76.8643 84.8016 71.6204 88.3773 65.8285 90.8162C60.0367 93.2551 53.8145 94.5078 47.5301 94.5C41.2457 94.4922 35.0267 93.2241 29.2409 90.7709C23.4551 88.3176 18.22 84.7289 13.8454 80.2171C9.47074 75.7053 6.04535 70.362 3.77183 64.5032C1.49831 58.6445 0.422829 52.3893 0.609009 46.1076C0.795188 39.8259 2.23924 33.6454 4.85576 27.9316L18.9381 34.3803C17.1839 38.2111 16.2157 42.3549 16.0909 46.5665C15.966 50.778 16.6871 54.9719 18.2114 58.8999C19.7357 62.8279 22.0322 66.4104 24.9652 69.4353C27.8982 72.4603 31.4081 74.8663 35.2872 76.5111C39.1663 78.156 43.3359 79.0061 47.5493 79.0113C51.7627 79.0166 55.9344 78.1767 59.8176 76.5416C63.7008 74.9064 67.2166 72.509 70.1571 69.4914C73.0975 66.4737 75.403 62.8969 76.937 58.9727L91.3626 64.6118Z" fill="#FF647C"/>
<path d="M91.3626 64.6118C89.0746 70.4649 85.636 75.7997 81.2502 80.3007C76.8643 84.8016 71.6204 88.3773 65.8285 90.8162C60.0367 93.2551 53.8145 94.5078 47.5301 94.5C41.2457 94.4922 35.0267 93.2241 29.2409 90.7709C23.4551 88.3176 18.22 84.7289 13.8454 80.2171C9.47074 75.7053 6.04535 70.362 3.77183 64.5032C1.49831 58.6445 0.422829 52.3893 0.609009 46.1076C0.795188 39.8259 2.23924 33.6454 4.85576 27.9316L18.9381 34.3803C17.1839 38.2111 16.2157 42.3549 16.0909 46.5665C15.966 50.778 16.6871 54.9719 18.2114 58.8999C19.7357 62.8279 22.0322 66.4104 24.9652 69.4353C27.8982 72.4603 31.4081 74.8663 35.2872 76.5111C39.1663 78.156 43.3359 79.0061 47.5493 79.0113C51.7627 79.0166 55.9344 78.1767 59.8176 76.5416C63.7008 74.9064 67.2166 72.509 70.1571 69.4914C73.0975 66.4737 75.403 62.8969 76.937 58.9727L91.3626 64.6118Z" fill="url(#paint0_linear)"/>
<defs>
<linearGradient id="paint0_linear" x1="47.5884" y1="0.5" x2="47.5884" y2="94.5" gradientUnits="userSpaceOnUse">
<stop stop-color="white"/>
<stop offset="1" stop-color="white" stop-opacity="0"/>
</linearGradient>
</defs>
</svg>
