<svg width="381" height="265" viewBox="0 0 381 265" fill="none" xmlns="http://www.w3.org/2000/svg">
<g filter="url(#filter0_d)">
<path d="M48.9889 8.74029H359.535" stroke="#E0E0E0" stroke-opacity="0.2"/>
<path d="M48.9898 47.7533H359.536" stroke="#E0E0E0" stroke-opacity="0.2"/>
<path d="M48.9898 86.7664H359.536" stroke="#E0E0E0" stroke-opacity="0.2"/>
<path d="M48.9898 125.78H359.536" stroke="#E0E0E0" stroke-opacity="0.2"/>
<path d="M48.9898 164.793H359.536" stroke="#E0E0E0" stroke-opacity="0.2"/>
<path d="M48.9898 203.805H359.536" stroke="#E0E0E0" stroke-opacity="0.2"/>
<path d="M60.6176 204.579V209.22" stroke="#E0E0E0" stroke-opacity="0.2"/>
<path d="M84.5573 204.579V209.22" stroke="#E0E0E0" stroke-opacity="0.2"/>
<path d="M108.498 204.579V209.22" stroke="#E0E0E0" stroke-opacity="0.2"/>
<path d="M132.44 204.579V209.22" stroke="#E0E0E0" stroke-opacity="0.2"/>
<path d="M156.382 204.579V209.22" stroke="#E0E0E0" stroke-opacity="0.2"/>
<path d="M180.323 204.579V209.22" stroke="#E0E0E0" stroke-opacity="0.2"/>
<path d="M204.264 204.579V209.22" stroke="#E0E0E0" stroke-opacity="0.2"/>
<path d="M228.205 204.579V209.22" stroke="#E0E0E0" stroke-opacity="0.2"/>
<path d="M252.146 204.579V209.22" stroke="#E0E0E0" stroke-opacity="0.2"/>
<path d="M276.087 204.579V209.22" stroke="#E0E0E0" stroke-opacity="0.2"/>
<path d="M300.028 204.579V209.22" stroke="#E0E0E0" stroke-opacity="0.2"/>
<path d="M323.97 204.579V209.22" stroke="#E0E0E0" stroke-opacity="0.2"/>
<path d="M347.911 204.579V209.22" stroke="#E0E0E0" stroke-opacity="0.2"/>
<path d="M60.6176 203.806H347.912" stroke="white" stroke-opacity="0.2"/>
<path d="M48.6588 9.51418V203.806" stroke="#ECEBED" stroke-opacity="0.2"/>
<path d="M80.6375 203.805V99.6046C84.4756 95.4915 88.3137 95.4915 92.1518 99.6046V203.805H80.6375Z" fill="url(#paint0_linear)" stroke="#008FFB" stroke-width="2" stroke-linecap="square"/>
<path d="M119.113 203.806V126.914C122.951 122.801 126.789 122.801 130.627 126.914V203.806H119.113Z" fill="url(#paint1_linear)" stroke="#008FFB" stroke-width="2" stroke-linecap="square"/>
<path d="M156.981 203.805V76.1967C160.819 72.0836 164.658 72.0836 168.496 76.1967V203.805H156.981Z" fill="url(#paint2_linear)" stroke="#008FFB" stroke-width="2" stroke-linecap="square"/>
<path d="M194.851 203.805V163.976C198.689 159.863 202.527 159.863 206.365 163.976V203.805H194.851Z" fill="url(#paint3_linear)" stroke="#008FFB" stroke-width="2" stroke-linecap="square"/>
<path d="M232.719 203.805V123.012C236.557 118.899 240.395 118.899 244.234 123.012V203.805H232.719Z" fill="url(#paint4_linear)" stroke="#008FFB" stroke-width="2" stroke-linecap="square"/>
<path d="M270.588 203.806V165.927C274.426 161.814 278.264 161.814 282.102 165.927V203.806H270.588Z" fill="url(#paint5_linear)" stroke="#008FFB" stroke-width="2" stroke-linecap="square"/>
<path d="M308.457 203.805V142.519C312.295 138.406 316.133 138.406 319.971 142.519V203.805H308.457Z" fill="url(#paint6_linear)" stroke="#008FFB" stroke-width="2" stroke-linecap="square"/>
<path d="M346.326 203.806V119.111C350.164 114.998 354.002 114.998 357.84 119.111V203.806H346.326Z" fill="url(#paint7_linear)" stroke="#008FFB" stroke-width="2" stroke-linecap="square"/>
<path d="M24.3853 10H23.3862V3.37744L21.3828 4.11328V3.21094L24.2295 2.14209H24.3853V10ZM32.2002 6.66455C32.2002 7.82829 32.0015 8.69303 31.604 9.25879C31.2065 9.82454 30.5853 10.1074 29.7402 10.1074C28.9059 10.1074 28.2882 9.83171 27.8872 9.28027C27.4862 8.72526 27.2785 7.89811 27.2642 6.79883V5.47217C27.2642 4.32275 27.4629 3.46875 27.8604 2.91016C28.2578 2.35156 28.8809 2.07227 29.7295 2.07227C30.571 2.07227 31.1904 2.34261 31.5879 2.8833C31.9854 3.42041 32.1895 4.25114 32.2002 5.37549V6.66455ZM31.2065 5.30566C31.2065 4.46419 31.0884 3.85189 30.8521 3.46875C30.6157 3.08203 30.2415 2.88867 29.7295 2.88867C29.221 2.88867 28.8504 3.08024 28.6177 3.46338C28.3849 3.84652 28.265 4.43555 28.2578 5.23047V6.82031C28.2578 7.66536 28.3796 8.2902 28.623 8.69482C28.8701 9.09587 29.2425 9.29639 29.7402 9.29639C30.2308 9.29639 30.5942 9.10661 30.8306 8.72705C31.0705 8.34749 31.1958 7.74951 31.2065 6.93311V5.30566ZM38.377 6.66455C38.377 7.82829 38.1782 8.69303 37.7808 9.25879C37.3833 9.82454 36.762 10.1074 35.917 10.1074C35.0827 10.1074 34.465 9.83171 34.064 9.28027C33.6629 8.72526 33.4552 7.89811 33.4409 6.79883V5.47217C33.4409 4.32275 33.6396 3.46875 34.0371 2.91016C34.4346 2.35156 35.0576 2.07227 35.9062 2.07227C36.7477 2.07227 37.3672 2.34261 37.7646 2.8833C38.1621 3.42041 38.3662 4.25114 38.377 5.37549V6.66455ZM37.3833 5.30566C37.3833 4.46419 37.2651 3.85189 37.0288 3.46875C36.7925 3.08203 36.4183 2.88867 35.9062 2.88867C35.3978 2.88867 35.0272 3.08024 34.7944 3.46338C34.5617 3.84652 34.4417 4.43555 34.4346 5.23047V6.82031C34.4346 7.66536 34.5563 8.2902 34.7998 8.69482C35.0469 9.09587 35.4193 9.29639 35.917 9.29639C36.4076 9.29639 36.771 9.10661 37.0073 8.72705C37.2472 8.34749 37.3726 7.74951 37.3833 6.93311V5.30566Z" fill="white"/>
<path d="M32.0376 43.2109C32.0376 43.6012 31.9338 43.9485 31.7261 44.2529C31.522 44.5573 31.2445 44.7954 30.8936 44.9673C31.3018 45.1427 31.6241 45.3987 31.8604 45.7353C32.1003 46.0719 32.2202 46.4533 32.2202 46.8794C32.2202 47.5561 31.9911 48.095 31.5327 48.4961C31.078 48.8971 30.4782 49.0976 29.7334 49.0976C28.9815 49.0976 28.3781 48.8971 27.9234 48.4961C27.4722 48.0914 27.2466 47.5525 27.2466 46.8794C27.2466 46.4568 27.3612 46.0755 27.5904 45.7353C27.8231 45.3952 28.1436 45.1373 28.5518 44.9619C28.2045 44.79 27.9305 44.5519 27.73 44.2475C27.5295 43.9432 27.4292 43.5976 27.4292 43.2109C27.4292 42.5521 27.6405 42.0293 28.063 41.6425C28.4855 41.2558 29.0424 41.0625 29.7334 41.0625C30.4209 41.0625 30.9759 41.2558 31.3985 41.6425C31.8246 42.0293 32.0376 42.5521 32.0376 43.2109ZM31.2266 46.8579C31.2266 46.421 31.0869 46.0647 30.8077 45.789C30.5319 45.5133 30.1703 45.3755 29.7227 45.3755C29.2751 45.3755 28.9152 45.5115 28.6431 45.7837C28.3745 46.0558 28.2403 46.4139 28.2403 46.8579C28.2403 47.3019 28.371 47.651 28.6324 47.9052C28.8973 48.1595 29.2644 48.2866 29.7334 48.2866C30.1989 48.2866 30.5642 48.1595 30.8291 47.9052C31.0941 47.6474 31.2266 47.2983 31.2266 46.8579ZM29.7334 41.8789C29.3431 41.8789 29.0262 42.0006 28.7827 42.2441C28.5428 42.484 28.4229 42.8117 28.4229 43.227C28.4229 43.6245 28.541 43.9467 28.7774 44.1938C29.0173 44.4373 29.336 44.5591 29.7334 44.5591C30.1309 44.5591 30.4478 44.4373 30.6841 44.1938C30.924 43.9467 31.044 43.6245 31.044 43.227C31.044 42.8296 30.9204 42.5055 30.6734 42.2549C30.4263 42.0042 30.113 41.8789 29.7334 41.8789ZM38.3755 45.6548C38.3755 46.8185 38.1768 47.6832 37.7793 48.249C37.3819 48.8147 36.7606 49.0976 35.9156 49.0976C35.0813 49.0976 34.4636 48.8219 34.0625 48.2705C33.6615 47.7155 33.4538 46.8883 33.4395 45.789V44.4624C33.4395 43.313 33.6382 42.459 34.0357 41.9004C34.4331 41.3418 35.0562 41.0625 35.9048 41.0625C36.7463 41.0625 37.3658 41.3328 37.7632 41.8735C38.1607 42.4106 38.3648 43.2413 38.3755 44.3657V45.6548ZM37.3819 44.2959C37.3819 43.4544 37.2637 42.8421 37.0274 42.459C36.791 42.0722 36.4169 41.8789 35.9048 41.8789C35.3964 41.8789 35.0258 42.0704 34.793 42.4536C34.5603 42.8367 34.4403 43.4258 34.4331 44.2207V45.8105C34.4331 46.6556 34.5549 47.2804 34.7984 47.685C35.0454 48.0861 35.4178 48.2866 35.9156 48.2866C36.4061 48.2866 36.7696 48.0968 37.0059 47.7173C37.2458 47.3377 37.3711 46.7397 37.3819 45.9233V44.2959Z" fill="white"/>
<path d="M31.1944 80.1547V80.998H31.0118C30.2383 81.0123 29.6224 81.2415 29.1641 81.6855C28.7058 82.1295 28.4408 82.7543 28.3692 83.56C28.781 83.0874 29.3431 82.851 30.0557 82.851C30.736 82.851 31.2785 83.0909 31.6831 83.5708C32.0913 84.0506 32.2954 84.67 32.2954 85.4292C32.2954 86.2348 32.0752 86.8793 31.6348 87.3627C31.198 87.8461 30.6107 88.0878 29.8731 88.0878C29.1247 88.0878 28.5178 87.8014 28.0523 87.2285C27.5868 86.652 27.354 85.9108 27.354 85.0048V84.6235C27.354 83.184 27.6602 82.0848 28.2725 81.3256C28.8884 80.5629 29.8033 80.1726 31.0171 80.1547H31.1944ZM29.8892 83.6782C29.549 83.6782 29.2357 83.7802 28.9493 83.9843C28.6628 84.1884 28.4641 84.4445 28.3531 84.7524V85.1176C28.3531 85.7622 28.4981 86.2814 28.7881 86.6752C29.0782 87.0691 29.4398 87.2661 29.8731 87.2661C30.3207 87.2661 30.6716 87.1014 30.9258 86.7719C31.1836 86.4425 31.3125 86.011 31.3125 85.4775C31.3125 84.9404 31.1818 84.5071 30.9204 84.1777C30.6626 83.8447 30.3189 83.6782 29.8892 83.6782ZM38.3755 84.645C38.3755 85.8087 38.1768 86.6735 37.7793 87.2392C37.3819 87.805 36.7606 88.0878 35.9156 88.0878C35.0813 88.0878 34.4636 87.8121 34.0625 87.2607C33.6615 86.7057 33.4538 85.8785 33.4395 84.7793V83.4526C33.4395 82.3032 33.6382 81.4492 34.0357 80.8906C34.4331 80.332 35.0562 80.0527 35.9048 80.0527C36.7463 80.0527 37.3658 80.323 37.7632 80.8637C38.1607 81.4008 38.3648 82.2316 38.3755 83.3559V84.645ZM37.3819 83.2861C37.3819 82.4446 37.2637 81.8323 37.0274 81.4492C36.791 81.0625 36.4169 80.8691 35.9048 80.8691C35.3964 80.8691 35.0258 81.0607 34.793 81.4438C34.5603 81.8269 34.4403 82.416 34.4331 83.2109V84.8007C34.4331 85.6458 34.5549 86.2706 34.7984 86.6752C35.0454 87.0763 35.4178 87.2768 35.9156 87.2768C36.4061 87.2768 36.7696 87.087 37.0059 86.7075C37.2458 86.3279 37.3711 85.7299 37.3819 84.9135V83.2861Z" fill="white"/>
<path d="M31.4898 124.344H32.5747V125.155H31.4898V126.971H30.4908V125.155H26.9297V124.57L30.4317 119.15H31.4898V124.344ZM28.0577 124.344H30.4908V120.509L30.3726 120.724L28.0577 124.344ZM38.3755 123.635C38.3755 124.799 38.1768 125.664 37.7793 126.229C37.3819 126.795 36.7606 127.078 35.9156 127.078C35.0813 127.078 34.4636 126.802 34.0625 126.251C33.6615 125.696 33.4538 124.869 33.4395 123.769V122.443C33.4395 121.293 33.6382 120.439 34.0357 119.881C34.4331 119.322 35.0562 119.043 35.9048 119.043C36.7463 119.043 37.3658 119.313 37.7632 119.854C38.1607 120.391 38.3648 121.222 38.3755 122.346V123.635ZM37.3819 122.276C37.3819 121.435 37.2637 120.823 37.0274 120.439C36.791 120.053 36.4169 119.859 35.9048 119.859C35.3964 119.859 35.0258 120.051 34.793 120.434C34.5603 120.817 34.4403 121.406 34.4331 122.201V123.791C34.4331 124.636 34.5549 125.261 34.7984 125.665C35.0454 126.066 35.4178 126.267 35.9156 126.267C36.4061 126.267 36.7696 126.077 37.0059 125.698C37.2458 125.318 37.3711 124.72 37.3819 123.904V122.276Z" fill="white"/>
<path d="M32.419 165.961H27.295V165.246L30.002 162.239C30.403 161.784 30.6787 161.415 30.8291 161.132C30.9831 160.846 31.0601 160.55 31.0601 160.246C31.0601 159.838 30.9366 159.503 30.6895 159.242C30.4424 158.98 30.113 158.85 29.7012 158.85C29.2071 158.85 28.8221 158.991 28.5464 159.274C28.2743 159.553 28.1382 159.943 28.1382 160.445H27.1446C27.1446 159.725 27.3755 159.143 27.8374 158.699C28.3029 158.255 28.9242 158.033 29.7012 158.033C30.4281 158.033 31.0028 158.225 31.4253 158.608C31.8479 158.987 32.0591 159.494 32.0591 160.128C32.0591 160.898 31.5686 161.814 30.5874 162.878L28.4927 165.15H32.419V165.961ZM38.3755 162.625C38.3755 163.789 38.1768 164.654 37.7793 165.22C37.3819 165.785 36.7606 166.068 35.9156 166.068C35.0813 166.068 34.4636 165.793 34.0625 165.241C33.6615 164.686 33.4538 163.859 33.4395 162.76V161.433C33.4395 160.284 33.6382 159.43 34.0357 158.871C34.4331 158.312 35.0562 158.033 35.9048 158.033C36.7463 158.033 37.3658 158.303 37.7632 158.844C38.1607 159.381 38.3648 160.212 38.3755 161.336V162.625ZM37.3819 161.267C37.3819 160.425 37.2637 159.813 37.0274 159.43C36.791 159.043 36.4169 158.85 35.9048 158.85C35.3964 158.85 35.0258 159.041 34.793 159.424C34.5603 159.807 34.4403 160.396 34.4331 161.191V162.781C34.4331 163.626 34.5549 164.251 34.7984 164.656C35.0454 165.057 35.4178 165.257 35.9156 165.257C36.4061 165.257 36.7696 165.067 37.0059 164.688C37.2458 164.308 37.3711 163.71 37.3819 162.894V161.267Z" fill="white"/>
<path d="M38.3759 201.616C38.3759 202.779 38.1772 203.644 37.7797 204.21C37.3823 204.776 36.761 205.058 35.916 205.058C35.0817 205.058 34.464 204.783 34.0629 204.231C33.6619 203.676 33.4542 202.849 33.4399 201.75V200.423C33.4399 199.274 33.6386 198.42 34.0361 197.861C34.4335 197.303 35.0566 197.023 35.9052 197.023C36.7467 197.023 37.3662 197.294 37.7636 197.834C38.1611 198.371 38.3652 199.202 38.3759 200.327V201.616ZM37.3823 200.257C37.3823 199.415 37.2641 198.803 37.0278 198.42C36.7915 198.033 36.4173 197.84 35.9052 197.84C35.3968 197.84 35.0262 198.031 34.7934 198.414C34.5607 198.798 34.4407 199.387 34.4335 200.182V201.771C34.4335 202.616 34.5553 203.241 34.7988 203.646C35.0458 204.047 35.4182 204.247 35.916 204.247C36.4065 204.247 36.77 204.058 37.0063 203.678C37.2462 203.299 37.3715 202.701 37.3823 201.884V200.257Z" fill="white"/>
<path d="M42.9632 248.5C42.1125 248.978 41.1432 249.163 40.0554 249.053C38.9676 248.935 37.7997 248.525 36.5515 247.823C35.3033 247.121 34.5782 246.467 34.3759 245.859C34.1737 245.243 34.498 244.696 35.3487 244.218C36.1994 243.739 37.1686 243.559 38.2564 243.676C39.3442 243.786 40.5087 244.19 41.7499 244.888C42.998 245.59 43.7232 246.249 43.9254 246.865C44.1346 247.476 43.8139 248.021 42.9632 248.5ZM42.2415 248.094C42.8342 247.761 43.0189 247.374 42.7958 246.935C42.5796 246.492 41.9416 245.972 40.8817 245.376C39.8288 244.784 38.9153 244.427 38.1413 244.306C37.3673 244.184 36.6805 244.292 36.0808 244.629C35.4881 244.963 35.2964 245.349 35.5056 245.788C35.7217 246.223 36.3563 246.737 37.4092 247.329C38.4621 247.921 39.3825 248.282 40.1705 248.412C40.9584 248.533 41.6487 248.427 42.2415 248.094ZM51.2987 242.906L52.0204 243.312L47.23 246.006L46.5815 245.641L46.2991 242.553C46.2573 242.138 46.1597 241.796 46.0063 241.53C45.8529 241.263 45.6193 241.042 45.3055 240.865C44.8941 240.634 44.4617 240.524 44.0085 240.536C43.5483 240.544 43.0985 240.671 42.6592 240.918C41.948 241.318 41.5296 241.875 41.4041 242.589L40.4209 242.4C40.4349 242.079 40.5813 241.745 40.8602 241.4C41.1391 241.055 41.5052 240.755 41.9584 240.5C42.6418 240.116 43.36 239.912 44.1131 239.889C44.8592 239.861 45.5321 240.016 46.1318 240.353C46.5571 240.593 46.8709 240.879 47.0731 241.212C47.2753 241.538 47.3974 241.963 47.4392 242.489L47.617 244.977L51.2987 242.906ZM53.3168 243.23L47.5955 236.989L48.38 236.548L54.0908 242.795L53.3168 243.23ZM59.5349 239.18C58.6842 239.659 57.7149 239.843 56.6271 239.733C55.5393 239.616 54.3714 239.206 53.1232 238.504C51.875 237.802 51.1499 237.147 50.9476 236.539C50.7454 235.924 51.0697 235.377 51.9204 234.898C52.7711 234.42 53.7403 234.239 54.8281 234.357C55.9159 234.467 57.0804 234.871 58.3216 235.569C59.5697 236.271 60.2949 236.929 60.4971 237.545C60.7063 238.157 60.3856 238.702 59.5349 239.18ZM58.8132 238.774C59.4059 238.441 59.5906 238.055 59.3675 237.616C59.1513 237.173 58.5133 236.653 57.4534 236.057C56.4005 235.465 55.487 235.108 54.713 234.986C53.939 234.865 53.2522 234.973 52.6525 235.31C52.0598 235.643 51.8681 236.029 52.0773 236.469C52.2934 236.904 52.928 237.418 53.9809 238.01C55.0338 238.602 55.9542 238.963 56.7422 239.092C57.5301 239.214 58.2205 239.108 58.8132 238.774ZM58.3105 231.304C59.21 230.799 60.2176 230.585 61.3333 230.663C62.449 230.742 63.5856 231.106 64.7431 231.757C66.0052 232.467 66.7339 233.163 66.9291 233.846C67.1243 234.52 66.7687 235.112 65.8622 235.622C65.4369 235.861 64.9383 236.051 64.3665 236.193C63.8017 236.33 63.216 236.404 62.6093 236.416L62.2851 235.857C62.9406 235.826 63.4984 235.759 63.9586 235.657C64.4119 235.551 64.8023 235.406 65.1301 235.222C65.7716 234.861 65.9808 234.422 65.7576 233.904C65.5415 233.383 64.9174 232.832 63.8854 232.251L63.7494 232.175C63.9795 232.485 64.0283 232.806 63.8959 233.14C63.7564 233.469 63.4531 233.765 62.9859 234.028C62.5326 234.283 62.0341 234.453 61.4902 234.54C60.9393 234.622 60.3884 234.618 59.8376 234.528C59.2797 234.434 58.7707 234.257 58.3105 233.998C57.8503 233.74 57.54 233.451 57.3796 233.134C57.2262 232.812 57.2297 232.493 57.3901 232.175C57.5435 231.853 57.8503 231.563 58.3105 231.304ZM62.4001 233.546C62.8883 233.271 63.1323 232.961 63.1323 232.616C63.1323 232.271 62.8883 231.961 62.4001 231.687C61.9051 231.408 61.3507 231.269 60.7371 231.269C60.1235 231.269 59.5691 231.408 59.074 231.687C58.5999 231.953 58.3698 232.255 58.3837 232.593C58.3907 232.926 58.6452 233.234 59.1473 233.516C59.6423 233.795 60.1897 233.938 60.7894 233.946C61.3821 233.949 61.919 233.816 62.4001 233.546ZM69.8885 233.911L64.1672 227.67L64.9517 227.228L70.6625 233.475L69.8885 233.911ZM77.8219 227.99L78.5436 228.396L73.7532 231.09L73.1047 230.725L72.8223 227.637C72.7805 227.222 72.6828 226.88 72.5294 226.614C72.376 226.347 72.1424 226.126 71.8286 225.949C71.4172 225.718 70.9849 225.608 70.5317 225.62C70.0715 225.628 69.6217 225.755 69.1824 226.002C68.4712 226.402 68.0528 226.959 67.9273 227.673L66.9441 227.484C66.958 227.163 67.1045 226.829 67.3834 226.484C67.6623 226.139 68.0284 225.839 68.4816 225.584C69.165 225.2 69.8832 224.996 70.6363 224.973C71.3824 224.945 72.0553 225.1 72.6549 225.437C73.0803 225.677 73.3941 225.963 73.5963 226.296C73.7985 226.622 73.9205 227.047 73.9624 227.573L74.1402 230.061L77.8219 227.99ZM82.7268 226.138C81.8761 226.616 80.9069 226.8 79.8191 226.691C78.7313 226.573 77.5633 226.163 76.3152 225.461C75.067 224.759 74.3418 224.104 74.1396 223.497C73.9374 222.881 74.2616 222.334 75.1123 221.855C75.963 221.377 76.9323 221.197 78.02 221.314C79.1078 221.424 80.2723 221.828 81.5135 222.526C82.7617 223.228 83.4869 223.887 83.6891 224.502C83.8983 225.114 83.5775 225.659 82.7268 226.138ZM82.0051 225.732C82.5978 225.399 82.7826 225.012 82.5594 224.573C82.3433 224.13 81.7053 223.61 80.6454 223.014C79.5924 222.422 78.679 222.065 77.905 221.944C77.131 221.822 76.4442 221.93 75.8445 222.267C75.2518 222.601 75.06 222.987 75.2692 223.426C75.4854 223.861 76.1199 224.375 77.1728 224.967C78.2257 225.559 79.1462 225.92 79.9341 226.049C80.7221 226.171 81.4124 226.065 82.0051 225.732ZM91.0624 220.544L91.7841 220.95L86.9937 223.644L86.3452 223.279L86.0628 220.191C86.0209 219.775 85.9233 219.434 85.7699 219.168C85.6165 218.901 85.3829 218.679 85.0691 218.503C84.6577 218.272 84.2254 218.162 83.7721 218.174C83.3119 218.181 82.8622 218.309 82.4229 218.556C81.7116 218.956 81.2933 219.513 81.1677 220.226L80.1846 220.038C80.1985 219.717 80.3449 219.383 80.6238 219.038C80.9028 218.693 81.2688 218.393 81.7221 218.138C82.4054 217.754 83.1237 217.55 83.8767 217.527C84.6228 217.499 85.2957 217.654 85.8954 217.991C86.3208 218.23 86.6346 218.517 86.8368 218.85C87.039 219.176 87.161 219.601 87.2028 220.126L87.3807 222.615L91.0624 220.544ZM97.5153 216.915L98.237 217.321L94.0846 219.656L93.3629 219.25L95.005 218.327L89.3464 215.145L88.7921 216.55L87.9658 216.086L88.6561 214.333L89.1477 214.056L95.8731 217.839L97.5153 216.915Z" fill="white"/>
<path d="M156.145 248.694C155.294 249.172 154.324 249.356 153.236 249.246C152.147 249.129 150.979 248.72 149.73 248.019C148.481 247.318 147.755 246.665 147.553 246.058C147.35 245.444 147.675 244.898 148.526 244.42C149.377 243.943 150.347 243.763 151.436 243.88C152.524 243.99 153.689 244.393 154.931 245.09C156.18 245.79 156.906 246.448 157.108 247.062C157.317 247.673 156.997 248.217 156.145 248.694ZM155.423 248.289C156.016 247.956 156.201 247.571 155.978 247.133C155.762 246.69 155.123 246.172 154.063 245.577C153.009 244.986 152.095 244.63 151.32 244.508C150.546 244.387 149.859 244.495 149.259 244.831C148.666 245.164 148.474 245.549 148.683 245.988C148.899 246.422 149.534 246.935 150.588 247.526C151.641 248.117 152.562 248.477 153.351 248.606C154.139 248.727 154.83 248.622 155.423 248.289ZM158.322 242.131C158.789 241.869 159.298 241.697 159.85 241.614C160.401 241.524 160.949 241.526 161.493 241.62C162.037 241.714 162.543 241.892 163.01 242.155C163.478 242.417 163.788 242.708 163.942 243.029C164.102 243.346 164.092 243.669 163.91 243.998C163.729 244.319 163.384 244.622 162.874 244.908C162.421 245.162 161.894 245.368 161.294 245.524C160.687 245.677 160.09 245.757 159.504 245.765L159.169 245.213C160.432 245.147 161.426 244.91 162.152 244.503C162.675 244.209 162.937 243.898 162.937 243.569C162.937 243.233 162.682 242.922 162.173 242.636C161.678 242.358 161.133 242.217 160.54 242.213C159.94 242.205 159.396 242.339 158.908 242.613C158.196 243.012 157.917 243.493 158.07 244.057L157.474 244.391L153.11 241.943L157.579 239.436L158.29 239.836L154.679 241.861L157.338 243.352C157.352 242.898 157.68 242.491 158.322 242.131ZM166.505 243.435L160.78 237.206L161.565 236.766L167.28 243L166.505 243.435ZM172.727 239.393C171.876 239.87 170.906 240.054 169.818 239.945C168.729 239.827 167.561 239.418 166.312 238.718C165.063 238.017 164.337 237.364 164.135 236.757C163.932 236.142 164.257 235.596 165.108 235.119C165.959 234.642 166.929 234.461 168.018 234.579C169.106 234.688 170.271 235.092 171.513 235.788C172.762 236.489 173.488 237.146 173.69 237.761C173.899 238.371 173.578 238.915 172.727 239.393ZM172.005 238.988C172.598 238.655 172.783 238.27 172.56 237.831C172.343 237.389 171.705 236.87 170.645 236.276C169.591 235.685 168.677 235.328 167.902 235.207C167.128 235.086 166.441 235.193 165.841 235.53C165.248 235.863 165.056 236.248 165.265 236.686C165.481 237.121 166.116 237.634 167.17 238.225C168.223 238.816 169.144 239.176 169.933 239.305C170.721 239.426 171.412 239.32 172.005 238.988ZM171.502 231.532C172.402 231.027 173.41 230.814 174.527 230.892C175.643 230.971 176.78 231.335 177.939 231.984C179.202 232.693 179.931 233.388 180.126 234.068C180.321 234.742 179.966 235.333 179.058 235.841C178.633 236.08 178.134 236.27 177.562 236.411C176.997 236.548 176.411 236.622 175.804 236.634L175.479 236.076C176.135 236.045 176.693 235.978 177.154 235.877C177.607 235.771 177.998 235.626 178.326 235.442C178.968 235.082 179.177 234.644 178.954 234.127C178.738 233.607 178.113 233.057 177.08 232.478L176.944 232.401C177.175 232.71 177.223 233.031 177.091 233.364C176.951 233.693 176.648 233.988 176.18 234.25C175.727 234.505 175.228 234.675 174.684 234.761C174.133 234.843 173.581 234.84 173.03 234.749C172.472 234.656 171.963 234.479 171.502 234.221C171.042 233.963 170.731 233.675 170.571 233.358C170.417 233.037 170.421 232.718 170.581 232.401C170.735 232.08 171.042 231.791 171.502 231.532ZM175.594 233.769C176.083 233.495 176.327 233.186 176.327 232.842C176.327 232.497 176.083 232.188 175.594 231.914C175.099 231.636 174.544 231.497 173.93 231.497C173.316 231.497 172.762 231.636 172.266 231.914C171.792 232.18 171.561 232.481 171.575 232.818C171.582 233.151 171.837 233.458 172.339 233.74C172.835 234.018 173.382 234.16 173.983 234.168C174.576 234.172 175.113 234.039 175.594 233.769ZM183.087 234.133L177.362 227.905L178.147 227.464L183.862 233.699L183.087 234.133ZM191.026 228.225L191.748 228.63L186.954 231.318L186.305 230.955L186.023 227.872C185.981 227.458 185.883 227.117 185.73 226.851C185.576 226.585 185.343 226.364 185.029 226.188C184.617 225.957 184.184 225.847 183.731 225.859C183.27 225.867 182.82 225.994 182.381 226.24C181.669 226.64 181.25 227.195 181.125 227.908L180.141 227.72C180.155 227.399 180.301 227.066 180.581 226.722C180.86 226.377 181.226 226.078 181.68 225.824C182.363 225.44 183.082 225.236 183.835 225.213C184.582 225.186 185.255 225.34 185.855 225.677C186.281 225.916 186.595 226.201 186.797 226.534C187 226.859 187.122 227.283 187.164 227.808L187.342 230.291L191.026 228.225ZM195.933 226.376C195.082 226.853 194.112 227.037 193.024 226.928C191.935 226.81 190.767 226.401 189.518 225.701C188.269 225 187.543 224.346 187.341 223.74C187.139 223.125 187.463 222.579 188.314 222.102C189.166 221.624 190.135 221.444 191.224 221.562C192.312 221.671 193.477 222.075 194.719 222.771C195.968 223.472 196.694 224.129 196.896 224.744C197.106 225.354 196.785 225.898 195.933 226.376ZM195.211 225.971C195.804 225.638 195.989 225.252 195.766 224.814C195.55 224.372 194.911 223.853 193.851 223.258C192.797 222.667 191.883 222.311 191.109 222.19C190.334 222.069 189.647 222.176 189.047 222.513C188.454 222.846 188.262 223.231 188.471 223.669C188.688 224.104 189.323 224.616 190.376 225.207C191.43 225.798 192.351 226.159 193.139 226.288C193.928 226.409 194.618 226.303 195.211 225.971ZM204.274 220.793L204.996 221.198L200.203 223.887L199.554 223.523L199.272 220.441C199.23 220.026 199.132 219.685 198.978 219.419C198.825 219.153 198.591 218.932 198.277 218.756C197.866 218.525 197.433 218.415 196.979 218.427C196.519 218.435 196.069 218.562 195.629 218.809C194.918 219.208 194.499 219.764 194.373 220.476L193.39 220.288C193.404 219.967 193.55 219.635 193.829 219.29C194.108 218.946 194.475 218.646 194.928 218.392C195.612 218.008 196.331 217.805 197.084 217.781C197.831 217.754 198.504 217.909 199.104 218.245C199.53 218.484 199.844 218.77 200.046 219.102C200.248 219.427 200.37 219.852 200.412 220.376L200.59 222.86L204.274 220.793ZM210.731 217.171L211.453 217.576L207.298 219.907L206.576 219.502L208.219 218.58L202.557 215.404L202.003 216.807L201.176 216.343L201.866 214.594L202.358 214.318L209.088 218.093L210.731 217.171Z" fill="white"/>
<path d="M84.8541 248.518C84.0029 248.995 83.0331 249.179 81.9446 249.07C80.8562 248.952 79.6875 248.543 78.4385 247.843C77.1896 247.142 76.464 246.488 76.2616 245.882C76.0593 245.267 76.3837 244.721 77.235 244.244C78.0862 243.766 79.056 243.586 80.1445 243.704C81.2329 243.813 82.3981 244.217 83.6401 244.913C84.889 245.614 85.6147 246.271 85.817 246.886C86.0263 247.496 85.7054 248.04 84.8541 248.518ZM84.132 248.113C84.7251 247.78 84.91 247.394 84.6867 246.956C84.4704 246.514 83.832 245.995 82.7714 245.4C81.7179 244.809 80.8038 244.453 80.0294 244.332C79.2549 244.211 78.5676 244.318 77.9676 244.655C77.3745 244.988 77.1826 245.373 77.3919 245.811C77.6082 246.246 78.2432 246.758 79.2967 247.349C80.3503 247.94 81.2713 248.301 82.0597 248.43C82.8482 248.551 83.5389 248.445 84.132 248.113ZM88.5899 242.031C89.155 241.855 89.7062 241.788 90.2435 241.831C90.7807 241.874 91.2831 242.027 91.7506 242.289C92.3995 242.653 92.6925 243.064 92.6297 243.522C92.5599 243.976 92.1483 244.414 91.3947 244.837C90.9133 245.107 90.3691 245.322 89.7621 245.483C89.162 245.639 88.562 245.722 87.9619 245.73L87.6375 245.172C88.9004 245.105 89.9051 244.863 90.6517 244.444C91.1819 244.146 91.4645 243.855 91.4994 243.569C91.5413 243.279 91.3319 243.006 90.8714 242.747C89.9574 242.235 88.9283 242.299 87.784 242.941L86.9258 243.422L86.2036 243.017L86.8944 242.63C87.4456 242.321 87.7456 242.015 87.7945 241.714C87.8433 241.413 87.641 241.135 87.1874 240.88C86.7828 240.653 86.3502 240.548 85.8897 240.563C85.4361 240.575 84.9896 240.704 84.55 240.951C83.8383 241.35 83.4197 241.906 83.2941 242.618L82.3103 242.43C82.3243 242.101 82.4673 241.771 82.7394 241.438C83.0115 241.098 83.3848 240.794 83.8593 240.528C84.5291 240.152 85.2338 239.949 85.9734 239.918C86.72 239.882 87.3828 240.027 87.9619 240.352C88.3875 240.591 88.6562 240.859 88.7678 241.156C88.8794 241.454 88.8201 241.745 88.5899 242.031ZM95.2142 243.258L89.4893 237.03L90.2743 236.589L95.9887 242.824L95.2142 243.258ZM101.436 239.216C100.585 239.694 99.615 239.878 98.5266 239.768C97.4381 239.651 96.2694 239.242 95.0205 238.541C93.7715 237.841 93.0459 237.187 92.8436 236.58C92.6412 235.966 92.9657 235.42 93.8169 234.943C94.6681 234.465 95.638 234.285 96.7264 234.402C97.8149 234.512 98.9801 234.915 100.222 235.612C101.471 236.312 102.197 236.97 102.399 237.584C102.608 238.195 102.287 238.739 101.436 239.216ZM100.714 238.811C101.307 238.479 101.492 238.093 101.269 237.655C101.052 237.213 100.414 236.694 99.3534 236.099C98.2998 235.508 97.3858 235.152 96.6113 235.031C95.8368 234.909 95.1495 235.017 94.5495 235.354C93.9564 235.686 93.7646 236.072 93.9739 236.51C94.1902 236.944 94.8251 237.457 95.8787 238.048C96.9322 238.639 97.8532 238.999 98.6417 239.128C99.4301 239.25 100.121 239.144 100.714 238.811ZM100.211 231.356C101.111 230.851 102.119 230.638 103.236 230.716C104.352 230.794 105.489 231.158 106.648 231.808C107.91 232.516 108.64 233.211 108.835 233.892C109.03 234.565 108.674 235.156 107.767 235.665C107.342 235.904 106.843 236.094 106.271 236.234C105.706 236.371 105.119 236.446 104.512 236.458L104.188 235.9C104.844 235.869 105.402 235.802 105.863 235.7C106.316 235.595 106.707 235.45 107.035 235.266C107.677 234.906 107.886 234.467 107.663 233.951C107.446 233.43 106.822 232.88 105.789 232.301L105.653 232.225C105.883 232.534 105.932 232.855 105.8 233.188C105.66 233.516 105.357 233.812 104.889 234.074C104.436 234.328 103.937 234.499 103.393 234.585C102.841 234.667 102.29 234.663 101.739 234.573C101.181 234.479 100.671 234.303 100.211 234.045C99.7505 233.786 99.44 233.499 99.2795 233.182C99.126 232.861 99.1295 232.542 99.29 232.225C99.4435 231.904 99.7505 231.614 100.211 231.356ZM104.303 233.593C104.792 233.319 105.036 233.01 105.036 232.665C105.036 232.321 104.792 232.012 104.303 231.738C103.808 231.46 103.253 231.321 102.639 231.321C102.025 231.321 101.47 231.46 100.975 231.738C100.501 232.004 100.27 232.305 100.284 232.642C100.291 232.974 100.546 233.282 101.048 233.563C101.544 233.841 102.091 233.984 102.691 233.992C103.284 233.996 103.822 233.863 104.303 233.593ZM111.796 233.957L106.071 227.728L106.856 227.288L112.571 233.523L111.796 233.957ZM119.734 228.048L120.457 228.453L115.663 231.142L115.014 230.778L114.732 227.696C114.69 227.281 114.592 226.941 114.439 226.674C114.285 226.408 114.051 226.187 113.737 226.011C113.326 225.78 112.893 225.671 112.44 225.682C111.979 225.69 111.529 225.817 111.09 226.064C110.378 226.463 109.959 227.019 109.834 227.731L108.85 227.543C108.864 227.222 109.01 226.89 109.289 226.545C109.569 226.201 109.935 225.902 110.388 225.647C111.072 225.264 111.791 225.06 112.544 225.037C113.291 225.009 113.964 225.164 114.564 225.5C114.99 225.739 115.304 226.025 115.506 226.357C115.709 226.682 115.831 227.107 115.872 227.631L116.05 230.115L119.734 228.048ZM124.642 226.199C123.791 226.677 122.821 226.861 121.733 226.751C120.644 226.634 119.476 226.225 118.227 225.524C116.978 224.824 116.252 224.17 116.05 223.563C115.847 222.949 116.172 222.403 117.023 221.925C117.874 221.448 118.844 221.268 119.933 221.385C121.021 221.495 122.186 221.898 123.428 222.595C124.677 223.295 125.403 223.953 125.605 224.567C125.815 225.178 125.494 225.722 124.642 226.199ZM123.92 225.794C124.513 225.462 124.698 225.076 124.475 224.638C124.259 224.195 123.62 223.677 122.56 223.082C121.506 222.491 120.592 222.135 119.818 222.014C119.043 221.892 118.356 222 117.756 222.336C117.163 222.669 116.971 223.055 117.18 223.493C117.396 223.927 118.031 224.44 119.085 225.031C120.138 225.622 121.06 225.982 121.848 226.111C122.636 226.233 123.327 226.127 123.92 225.794ZM132.983 220.617L133.705 221.022L128.912 223.71L128.263 223.347L127.98 220.264C127.939 219.85 127.841 219.509 127.687 219.243C127.534 218.977 127.3 218.756 126.986 218.58C126.574 218.349 126.142 218.239 125.688 218.251C125.228 218.259 124.778 218.386 124.338 218.632C123.627 219.032 123.208 219.587 123.082 220.3L122.099 220.112C122.112 219.791 122.259 219.458 122.538 219.114C122.817 218.769 123.183 218.47 123.637 218.216C124.321 217.832 125.039 217.628 125.793 217.605C126.54 217.578 127.213 217.732 127.813 218.069C128.239 218.308 128.553 218.593 128.755 218.926C128.957 219.251 129.079 219.675 129.121 220.2L129.299 222.683L132.983 220.617ZM139.44 216.995L140.162 217.4L136.007 219.731L135.285 219.325L136.928 218.404L131.266 215.228L130.711 216.631L129.885 216.167L130.575 214.418L131.067 214.142L137.797 217.916L139.44 216.995Z" fill="white"/>
<path d="M268.411 248.518C267.56 248.995 266.59 249.179 265.502 249.07C264.414 248.952 263.245 248.543 261.996 247.843C260.747 247.142 260.021 246.488 259.819 245.882C259.617 245.267 259.941 244.721 260.792 244.244C261.644 243.766 262.613 243.586 263.702 243.704C264.79 243.813 265.955 244.217 267.197 244.913C268.446 245.614 269.172 246.271 269.374 246.886C269.584 247.496 269.263 248.04 268.411 248.518ZM267.689 248.113C268.282 247.78 268.467 247.395 268.244 246.956C268.028 246.514 267.389 245.995 266.329 245.4C265.275 244.809 264.361 244.453 263.587 244.332C262.812 244.211 262.125 244.318 261.525 244.655C260.932 244.988 260.74 245.373 260.949 245.811C261.166 246.246 261.801 246.759 262.854 247.35C263.908 247.94 264.829 248.301 265.617 248.43C266.406 248.551 267.096 248.445 267.689 248.113ZM267.186 240.657C268.086 240.152 269.095 239.939 270.211 240.017C271.327 240.096 272.465 240.46 273.623 241.109C274.886 241.818 275.615 242.512 275.81 243.193C276.006 243.867 275.65 244.458 274.743 244.966C274.317 245.205 273.818 245.395 273.246 245.536C272.681 245.673 272.095 245.747 271.488 245.759L271.163 245.201C271.819 245.17 272.377 245.103 272.838 245.002C273.291 244.896 273.682 244.751 274.01 244.567C274.652 244.207 274.861 243.769 274.638 243.252C274.422 242.732 273.797 242.182 272.765 241.602L272.629 241.526C272.859 241.835 272.908 242.156 272.775 242.489C272.636 242.818 272.332 243.113 271.865 243.375C271.411 243.63 270.912 243.8 270.368 243.886C269.817 243.968 269.266 243.964 268.714 243.874C268.156 243.78 267.647 243.604 267.186 243.346C266.726 243.088 266.415 242.8 266.255 242.483C266.101 242.162 266.105 241.843 266.265 241.526C266.419 241.205 266.726 240.916 267.186 240.657ZM271.279 242.894C271.767 242.62 272.011 242.311 272.011 241.966C272.011 241.622 271.767 241.313 271.279 241.039C270.783 240.761 270.228 240.622 269.614 240.622C269 240.622 268.446 240.761 267.95 241.039C267.476 241.305 267.246 241.606 267.26 241.943C267.267 242.276 267.521 242.583 268.024 242.865C268.519 243.143 269.067 243.285 269.667 243.293C270.26 243.297 270.797 243.164 271.279 242.894ZM278.772 243.258L273.047 237.03L273.832 236.589L279.546 242.824L278.772 243.258ZM284.993 239.216C284.142 239.694 283.172 239.878 282.084 239.768C280.995 239.651 279.827 239.242 278.578 238.541C277.329 237.841 276.603 237.187 276.401 236.581C276.199 235.966 276.523 235.42 277.374 234.943C278.225 234.465 279.195 234.285 280.284 234.403C281.372 234.512 282.537 234.915 283.779 235.612C285.028 236.312 285.754 236.97 285.956 237.584C286.166 238.195 285.845 238.739 284.993 239.216ZM284.271 238.811C284.864 238.479 285.049 238.093 284.826 237.655C284.61 237.213 283.971 236.694 282.911 236.099C281.857 235.508 280.943 235.152 280.169 235.031C279.394 234.909 278.707 235.017 278.107 235.354C277.514 235.686 277.322 236.072 277.531 236.51C277.748 236.945 278.382 237.457 279.436 238.048C280.49 238.639 281.411 238.999 282.199 239.128C282.987 239.25 283.678 239.144 284.271 238.811ZM283.768 231.356C284.668 230.851 285.677 230.638 286.793 230.716C287.909 230.794 289.047 231.158 290.205 231.808C291.468 232.516 292.197 233.211 292.392 233.892C292.588 234.565 292.232 235.156 291.325 235.665C290.899 235.904 290.4 236.094 289.828 236.234C289.263 236.371 288.677 236.446 288.07 236.458L287.745 235.9C288.401 235.869 288.959 235.802 289.42 235.7C289.873 235.595 290.264 235.45 290.592 235.266C291.234 234.906 291.443 234.467 291.22 233.951C291.004 233.43 290.379 232.88 289.347 232.301L289.211 232.225C289.441 232.534 289.49 232.855 289.357 233.188C289.218 233.516 288.914 233.812 288.447 234.074C287.993 234.328 287.494 234.499 286.95 234.585C286.399 234.667 285.848 234.663 285.296 234.573C284.738 234.479 284.229 234.303 283.768 234.045C283.308 233.786 282.997 233.499 282.837 233.182C282.683 232.861 282.687 232.542 282.847 232.225C283.001 231.904 283.308 231.614 283.768 231.356ZM287.86 233.593C288.349 233.319 288.593 233.01 288.593 232.665C288.593 232.321 288.349 232.012 287.86 231.738C287.365 231.46 286.81 231.321 286.196 231.321C285.582 231.321 285.028 231.46 284.532 231.738C284.058 232.004 283.828 232.305 283.842 232.642C283.849 232.974 284.103 233.282 284.606 233.563C285.101 233.841 285.649 233.984 286.249 233.992C286.842 233.996 287.379 233.863 287.86 233.593ZM295.353 233.957L289.629 227.728L290.414 227.288L296.128 233.523L295.353 233.957ZM303.292 228.048L304.014 228.453L299.221 231.142L298.572 230.778L298.289 227.696C298.247 227.281 298.15 226.941 297.996 226.675C297.843 226.408 297.609 226.187 297.295 226.011C296.883 225.78 296.451 225.671 295.997 225.682C295.537 225.69 295.086 225.817 294.647 226.064C293.935 226.463 293.517 227.019 293.391 227.731L292.407 227.543C292.421 227.222 292.568 226.89 292.847 226.545C293.126 226.201 293.492 225.902 293.946 225.647C294.629 225.264 295.348 225.06 296.102 225.037C296.848 225.009 297.522 225.164 298.122 225.5C298.547 225.739 298.861 226.025 299.064 226.358C299.266 226.682 299.388 227.107 299.43 227.631L299.608 230.115L303.292 228.048ZM308.2 226.199C307.348 226.677 306.379 226.861 305.29 226.751C304.202 226.634 303.033 226.225 301.784 225.524C300.535 224.824 299.81 224.17 299.607 223.563C299.405 222.949 299.729 222.403 300.58 221.926C301.432 221.448 302.402 221.268 303.49 221.385C304.578 221.495 305.744 221.898 306.986 222.595C308.235 223.295 308.96 223.953 309.163 224.567C309.372 225.178 309.051 225.722 308.2 226.199ZM307.478 225.794C308.071 225.462 308.256 225.076 308.032 224.638C307.816 224.195 307.178 223.677 306.117 223.082C305.063 222.491 304.149 222.135 303.375 222.014C302.6 221.892 301.913 222 301.313 222.336C300.72 222.669 300.528 223.055 300.737 223.493C300.954 223.927 301.589 224.44 302.642 225.031C303.696 225.622 304.617 225.982 305.405 226.111C306.194 226.233 306.884 226.127 307.478 225.794ZM316.54 220.617L317.263 221.022L312.469 223.711L311.82 223.347L311.538 220.264C311.496 219.85 311.398 219.509 311.245 219.243C311.091 218.977 310.857 218.756 310.543 218.58C310.132 218.349 309.699 218.239 309.246 218.251C308.785 218.259 308.335 218.386 307.896 218.632C307.184 219.032 306.765 219.587 306.64 220.3L305.656 220.112C305.67 219.791 305.816 219.458 306.095 219.114C306.375 218.769 306.741 218.47 307.194 218.216C307.878 217.832 308.597 217.629 309.35 217.605C310.097 217.578 310.77 217.732 311.37 218.069C311.796 218.308 312.11 218.593 312.312 218.926C312.515 219.251 312.637 219.675 312.678 220.2L312.856 222.683L316.54 220.617ZM322.997 216.995L323.719 217.4L319.564 219.731L318.842 219.325L320.485 218.404L314.823 215.228L314.269 216.631L313.442 216.167L314.133 214.418L314.625 214.142L321.354 217.917L322.997 216.995Z" fill="white"/>
<path d="M117.788 248.603C116.937 249.08 115.967 249.264 114.879 249.155C113.79 249.037 112.622 248.628 111.373 247.928C110.124 247.227 109.398 246.574 109.196 245.967C108.993 245.353 109.318 244.807 110.169 244.329C111.02 243.852 111.99 243.672 113.079 243.789C114.167 243.899 115.332 244.302 116.574 244.998C117.823 245.699 118.549 246.356 118.751 246.971C118.96 247.581 118.639 248.125 117.788 248.603ZM117.066 248.198C117.659 247.865 117.844 247.48 117.621 247.041C117.404 246.599 116.766 246.081 115.706 245.486C114.652 244.895 113.738 244.538 112.963 244.417C112.189 244.296 111.502 244.403 110.902 244.74C110.309 245.073 110.117 245.458 110.326 245.897C110.542 246.331 111.177 246.844 112.231 247.435C113.284 248.026 114.205 248.386 114.994 248.515C115.782 248.636 116.473 248.531 117.066 248.198ZM125.501 242.363L124.371 242.997L125.993 243.907L125.135 244.388L123.512 243.478L120.08 245.404L119.431 245.04L117.84 240.12L118.541 239.727L123.659 242.598L124.789 241.964L125.501 242.363ZM122.801 243.079L119.138 241.024L120.258 244.506L122.801 243.079ZM128.148 243.344L122.423 237.115L123.208 236.674L128.923 242.909L128.148 243.344ZM134.37 239.302C133.519 239.779 132.549 239.963 131.461 239.853C130.372 239.736 129.203 239.327 127.955 238.626C126.706 237.926 125.98 237.272 125.778 236.666C125.575 236.051 125.9 235.505 126.751 235.028C127.602 234.55 128.572 234.37 129.661 234.488C130.749 234.597 131.914 235 133.156 235.697C134.405 236.398 135.131 237.055 135.333 237.67C135.542 238.28 135.221 238.824 134.37 239.302ZM133.648 238.897C134.241 238.564 134.426 238.178 134.203 237.74C133.986 237.298 133.348 236.779 132.287 236.184C131.234 235.593 130.32 235.237 129.545 235.116C128.771 234.995 128.084 235.102 127.484 235.439C126.891 235.771 126.699 236.157 126.908 236.595C127.124 237.03 127.759 237.542 128.813 238.133C129.866 238.724 130.787 239.084 131.576 239.214C132.364 239.335 133.055 239.229 133.648 238.897ZM133.145 231.441C134.045 230.936 135.053 230.723 136.17 230.801C137.286 230.88 138.423 231.244 139.582 231.893C140.844 232.602 141.574 233.296 141.769 233.977C141.964 234.65 141.608 235.241 140.701 235.75C140.276 235.989 139.777 236.179 139.205 236.32C138.64 236.457 138.054 236.531 137.447 236.543L137.122 235.985C137.778 235.954 138.336 235.887 138.797 235.785C139.25 235.68 139.641 235.535 139.969 235.351C140.611 234.991 140.82 234.553 140.597 234.036C140.38 233.515 139.756 232.966 138.723 232.386L138.587 232.31C138.818 232.619 138.866 232.94 138.734 233.273C138.594 233.602 138.291 233.897 137.823 234.159C137.37 234.414 136.871 234.584 136.327 234.67C135.775 234.752 135.224 234.748 134.673 234.658C134.115 234.564 133.606 234.388 133.145 234.13C132.685 233.872 132.374 233.584 132.214 233.267C132.06 232.946 132.064 232.627 132.224 232.31C132.378 231.989 132.685 231.699 133.145 231.441ZM137.237 233.678C137.726 233.404 137.97 233.095 137.97 232.75C137.97 232.406 137.726 232.097 137.237 231.823C136.742 231.545 136.187 231.406 135.573 231.406C134.959 231.406 134.404 231.545 133.909 231.823C133.435 232.089 133.204 232.39 133.218 232.727C133.225 233.059 133.48 233.367 133.982 233.649C134.478 233.926 135.025 234.069 135.625 234.077C136.219 234.081 136.756 233.948 137.237 233.678ZM144.73 234.042L139.005 227.813L139.79 227.373L145.505 233.608L144.73 234.042ZM152.669 228.133L153.391 228.539L148.597 231.227L147.948 230.863L147.666 227.781C147.624 227.366 147.526 227.026 147.373 226.76C147.219 226.494 146.986 226.272 146.672 226.096C146.26 225.865 145.827 225.756 145.374 225.768C144.913 225.775 144.463 225.903 144.024 226.149C143.312 226.548 142.893 227.104 142.768 227.816L141.784 227.629C141.798 227.308 141.944 226.975 142.224 226.631C142.503 226.286 142.869 225.987 143.322 225.732C144.006 225.349 144.725 225.145 145.478 225.122C146.225 225.094 146.898 225.249 147.498 225.586C147.924 225.824 148.238 226.11 148.44 226.443C148.643 226.768 148.765 227.192 148.807 227.717L148.985 230.2L152.669 228.133ZM157.576 226.285C156.725 226.762 155.755 226.946 154.667 226.836C153.578 226.719 152.41 226.31 151.161 225.609C149.912 224.909 149.186 224.255 148.984 223.649C148.782 223.034 149.106 222.488 149.957 222.011C150.808 221.533 151.778 221.353 152.867 221.471C153.955 221.58 155.12 221.983 156.362 222.68C157.611 223.38 158.337 224.038 158.539 224.652C158.749 225.263 158.428 225.807 157.576 226.285ZM156.854 225.879C157.447 225.547 157.632 225.161 157.409 224.723C157.193 224.281 156.554 223.762 155.494 223.167C154.44 222.576 153.526 222.22 152.752 222.099C151.977 221.977 151.29 222.085 150.69 222.422C150.097 222.754 149.905 223.14 150.114 223.578C150.331 224.013 150.965 224.525 152.019 225.116C153.073 225.707 153.994 226.067 154.782 226.196C155.57 226.318 156.261 226.212 156.854 225.879ZM165.917 220.702L166.639 221.107L161.846 223.796L161.197 223.432L160.914 220.35C160.873 219.935 160.775 219.594 160.621 219.328C160.468 219.062 160.234 218.841 159.92 218.665C159.509 218.434 159.076 218.324 158.622 218.336C158.162 218.344 157.712 218.471 157.272 218.718C156.561 219.117 156.142 219.673 156.016 220.385L155.033 220.197C155.047 219.876 155.193 219.543 155.472 219.199C155.751 218.855 156.118 218.555 156.571 218.301C157.255 217.917 157.974 217.714 158.727 217.69C159.474 217.663 160.147 217.817 160.747 218.154C161.173 218.393 161.487 218.678 161.689 219.011C161.891 219.336 162.013 219.761 162.055 220.285L162.233 222.768L165.917 220.702ZM172.374 217.08L173.096 217.485L168.941 219.816L168.219 219.411L169.862 218.489L164.2 215.313L163.645 216.716L162.819 216.252L163.509 214.503L164.001 214.227L170.731 218.002L172.374 217.08Z" fill="white"/>
<path d="M303.652 246.83L304.374 247.235L300.219 249.566L299.497 249.161L301.14 248.239L295.478 245.063L294.923 246.466L294.096 246.002L294.787 244.253L295.279 243.977L302.008 247.752L303.652 246.83ZM308.727 244.887C307.876 245.365 306.906 245.549 305.817 245.439C304.729 245.322 303.56 244.913 302.311 244.212C301.062 243.511 300.337 242.858 300.134 242.251C299.932 241.637 300.257 241.091 301.108 240.613C301.959 240.136 302.929 239.956 304.017 240.073C305.106 240.183 306.271 240.586 307.513 241.283C308.762 241.983 309.488 242.641 309.69 243.255C309.899 243.866 309.578 244.41 308.727 244.887ZM308.005 244.482C308.598 244.149 308.783 243.764 308.56 243.326C308.343 242.883 307.705 242.365 306.644 241.77C305.591 241.179 304.677 240.823 303.902 240.701C303.128 240.58 302.44 240.688 301.84 241.024C301.247 241.357 301.055 241.742 301.265 242.181C301.481 242.615 302.116 243.128 303.17 243.719C304.223 244.31 305.144 244.67 305.933 244.799C306.721 244.92 307.412 244.815 308.005 244.482ZM312.463 243.343L306.738 237.115L307.523 236.674L313.237 242.909L312.463 243.343ZM318.685 239.302C317.833 239.779 316.864 239.963 315.775 239.853C314.687 239.736 313.518 239.327 312.269 238.626C311.02 237.926 310.294 237.272 310.092 236.666C309.89 236.051 310.214 235.505 311.065 235.028C311.917 234.55 312.886 234.37 313.975 234.488C315.063 234.597 316.229 235 317.471 235.697C318.719 236.398 319.445 237.055 319.647 237.67C319.857 238.28 319.536 238.824 318.685 239.302ZM317.962 238.897C318.556 238.564 318.74 238.178 318.517 237.74C318.301 237.298 317.662 236.779 316.602 236.184C315.548 235.593 314.634 235.237 313.86 235.116C313.085 234.994 312.398 235.102 311.798 235.439C311.205 235.771 311.013 236.157 311.222 236.595C311.439 237.03 312.074 237.542 313.127 238.133C314.181 238.724 315.102 239.084 315.89 239.214C316.679 239.335 317.369 239.229 317.962 238.897ZM317.459 231.441C318.36 230.936 319.368 230.723 320.484 230.801C321.6 230.88 322.738 231.243 323.896 231.893C325.159 232.602 325.888 233.296 326.083 233.977C326.279 234.65 325.923 235.241 325.016 235.75C324.59 235.989 324.091 236.179 323.519 236.32C322.954 236.457 322.368 236.531 321.761 236.543L321.437 235.985C322.092 235.954 322.651 235.887 323.111 235.785C323.565 235.68 323.955 235.535 324.283 235.351C324.925 234.991 325.134 234.553 324.911 234.036C324.695 233.515 324.07 232.966 323.038 232.386L322.902 232.31C323.132 232.619 323.181 232.94 323.048 233.273C322.909 233.602 322.605 233.897 322.138 234.159C321.684 234.414 321.185 234.584 320.641 234.67C320.09 234.752 319.539 234.748 318.988 234.658C318.429 234.564 317.92 234.388 317.459 234.13C316.999 233.872 316.688 233.584 316.528 233.267C316.375 232.946 316.378 232.627 316.538 232.31C316.692 231.989 316.999 231.699 317.459 231.441ZM321.552 233.678C322.04 233.404 322.284 233.095 322.284 232.75C322.284 232.406 322.04 232.097 321.552 231.823C321.056 231.545 320.502 231.406 319.888 231.406C319.274 231.406 318.719 231.545 318.223 231.823C317.749 232.089 317.519 232.39 317.533 232.727C317.54 233.059 317.794 233.367 318.297 233.648C318.792 233.926 319.34 234.069 319.94 234.077C320.533 234.081 321.07 233.948 321.552 233.678ZM329.045 234.042L323.32 227.813L324.105 227.373L329.819 233.608L329.045 234.042ZM336.983 228.133L337.705 228.538L332.912 231.227L332.263 230.863L331.98 227.781C331.938 227.366 331.841 227.026 331.687 226.76C331.534 226.494 331.3 226.272 330.986 226.096C330.574 225.865 330.142 225.756 329.688 225.768C329.228 225.775 328.778 225.903 328.338 226.149C327.626 226.548 327.208 227.104 327.082 227.816L326.098 227.629C326.112 227.308 326.259 226.975 326.538 226.631C326.817 226.286 327.183 225.987 327.637 225.732C328.321 225.349 329.039 225.145 329.793 225.122C330.539 225.094 331.213 225.249 331.813 225.586C332.238 225.824 332.552 226.11 332.755 226.443C332.957 226.768 333.079 227.192 333.121 227.717L333.299 230.2L336.983 228.133ZM341.891 226.284C341.04 226.762 340.07 226.946 338.981 226.836C337.893 226.719 336.724 226.31 335.475 225.609C334.226 224.909 333.501 224.255 333.298 223.649C333.096 223.034 333.42 222.488 334.272 222.011C335.123 221.533 336.093 221.353 337.181 221.471C338.27 221.58 339.435 221.983 340.677 222.68C341.926 223.38 342.651 224.038 342.854 224.652C343.063 225.263 342.742 225.807 341.891 226.284ZM341.169 225.879C341.762 225.547 341.947 225.161 341.723 224.723C341.507 224.281 340.869 223.762 339.808 223.167C338.755 222.576 337.841 222.22 337.066 222.099C336.292 221.977 335.604 222.085 335.004 222.422C334.411 222.754 334.219 223.14 334.429 223.578C334.645 224.013 335.28 224.525 336.333 225.116C337.387 225.707 338.308 226.067 339.096 226.196C339.885 226.318 340.576 226.212 341.169 225.879ZM350.232 220.702L350.954 221.107L346.16 223.796L345.511 223.432L345.229 220.35C345.187 219.935 345.089 219.594 344.936 219.328C344.782 219.062 344.549 218.841 344.235 218.665C343.823 218.434 343.39 218.324 342.937 218.336C342.476 218.344 342.026 218.471 341.587 218.718C340.875 219.117 340.456 219.673 340.331 220.385L339.347 220.197C339.361 219.876 339.508 219.543 339.787 219.199C340.066 218.855 340.432 218.555 340.886 218.301C341.569 217.917 342.288 217.714 343.042 217.69C343.788 217.663 344.461 217.817 345.061 218.154C345.487 218.393 345.801 218.678 346.003 219.011C346.206 219.336 346.328 219.761 346.37 220.285L346.548 222.768L350.232 220.702ZM356.688 217.08L357.411 217.485L353.256 219.816L352.533 219.411L354.177 218.489L348.515 215.313L347.96 216.716L347.133 216.252L347.824 214.503L348.316 214.227L355.045 218.002L356.688 217.08Z" fill="white"/>
<path d="M192.659 248.653C191.808 249.13 190.838 249.314 189.75 249.205C188.661 249.087 187.493 248.678 186.244 247.978C184.995 247.277 184.269 246.624 184.067 246.017C183.865 245.402 184.189 244.856 185.04 244.379C185.891 243.902 186.861 243.721 187.95 243.839C189.038 243.948 190.203 244.352 191.445 245.048C192.694 245.749 193.42 246.406 193.622 247.021C193.832 247.631 193.511 248.175 192.659 248.653ZM191.937 248.248C192.53 247.915 192.715 247.53 192.492 247.091C192.276 246.649 191.637 246.13 190.577 245.536C189.523 244.945 188.609 244.588 187.835 244.467C187.06 244.346 186.373 244.453 185.773 244.79C185.18 245.123 184.988 245.508 185.197 245.946C185.414 246.381 186.048 246.894 187.102 247.485C188.156 248.076 189.077 248.436 189.865 248.565C190.653 248.686 191.344 248.58 191.937 248.248ZM194.208 239.331L194.846 239.689L198.164 245.471L197.243 245.988L193.988 240.264L190.011 242.495L189.289 242.09L194.208 239.331ZM203.02 243.393L197.295 237.165L198.08 236.724L203.794 242.959L203.02 243.393ZM209.241 239.352C208.39 239.829 207.42 240.013 206.332 239.903C205.243 239.786 204.075 239.377 202.826 238.676C201.577 237.976 200.851 237.322 200.649 236.716C200.447 236.101 200.771 235.555 201.622 235.078C202.473 234.6 203.443 234.42 204.532 234.538C205.62 234.647 206.785 235.05 208.027 235.747C209.276 236.447 210.002 237.105 210.204 237.719C210.414 238.33 210.093 238.874 209.241 239.352ZM208.519 238.946C209.112 238.614 209.297 238.228 209.074 237.79C208.858 237.348 208.219 236.829 207.159 236.234C206.105 235.643 205.191 235.287 204.417 235.166C203.642 235.044 202.955 235.152 202.355 235.489C201.762 235.821 201.57 236.207 201.779 236.645C201.995 237.08 202.63 237.592 203.684 238.183C204.738 238.774 205.659 239.134 206.447 239.263C207.235 239.385 207.926 239.279 208.519 238.946ZM208.016 231.491C208.916 230.986 209.925 230.773 211.041 230.851C212.157 230.929 213.295 231.293 214.453 231.943C215.716 232.651 216.445 233.346 216.64 234.027C216.836 234.7 216.48 235.291 215.573 235.8C215.147 236.039 214.648 236.229 214.076 236.37C213.511 236.507 212.925 236.581 212.318 236.593L211.993 236.035C212.649 236.004 213.207 235.937 213.668 235.835C214.121 235.73 214.512 235.585 214.84 235.401C215.482 235.041 215.691 234.602 215.468 234.086C215.252 233.565 214.627 233.015 213.595 232.436L213.459 232.36C213.689 232.669 213.738 232.99 213.605 233.323C213.466 233.651 213.162 233.947 212.695 234.209C212.241 234.464 211.742 234.634 211.198 234.72C210.647 234.802 210.096 234.798 209.544 234.708C208.986 234.614 208.477 234.438 208.016 234.18C207.556 233.921 207.245 233.634 207.085 233.317C206.931 232.996 206.935 232.677 207.095 232.36C207.249 232.039 207.556 231.749 208.016 231.491ZM212.108 233.728C212.597 233.454 212.841 233.145 212.841 232.8C212.841 232.456 212.597 232.147 212.108 231.873C211.613 231.595 211.058 231.456 210.444 231.456C209.83 231.456 209.276 231.595 208.78 231.873C208.306 232.139 208.076 232.44 208.09 232.777C208.097 233.109 208.351 233.417 208.854 233.698C209.349 233.976 209.897 234.119 210.497 234.127C211.09 234.131 211.627 233.998 212.108 233.728ZM219.601 234.092L213.877 227.863L214.662 227.423L220.376 233.658L219.601 234.092ZM227.54 228.183L228.262 228.588L223.468 231.277L222.82 230.913L222.537 227.831C222.495 227.416 222.397 227.076 222.244 226.81C222.09 226.543 221.857 226.322 221.543 226.146C221.131 225.915 220.699 225.806 220.245 225.817C219.784 225.825 219.334 225.952 218.895 226.199C218.183 226.598 217.765 227.154 217.639 227.866L216.655 227.678C216.669 227.358 216.816 227.025 217.095 226.68C217.374 226.336 217.74 226.037 218.194 225.782C218.877 225.399 219.596 225.195 220.35 225.172C221.096 225.144 221.77 225.299 222.37 225.635C222.795 225.874 223.109 226.16 223.312 226.493C223.514 226.817 223.636 227.242 223.678 227.766L223.856 230.25L227.54 228.183ZM232.448 226.334C231.596 226.812 230.627 226.996 229.538 226.886C228.45 226.769 227.281 226.36 226.032 225.659C224.783 224.959 224.057 224.305 223.855 223.698C223.653 223.084 223.977 222.538 224.828 222.061C225.68 221.583 226.65 221.403 227.738 221.52C228.826 221.63 229.992 222.033 231.234 222.73C232.483 223.43 233.208 224.088 233.411 224.702C233.62 225.313 233.299 225.857 232.448 226.334ZM231.725 225.929C232.319 225.597 232.503 225.211 232.28 224.773C232.064 224.331 231.425 223.812 230.365 223.217C229.311 222.626 228.397 222.27 227.623 222.149C226.848 222.027 226.161 222.135 225.561 222.472C224.968 222.804 224.776 223.19 224.985 223.628C225.202 224.062 225.837 224.575 226.89 225.166C227.944 225.757 228.865 226.117 229.653 226.246C230.442 226.368 231.132 226.262 231.725 225.929ZM240.788 220.752L241.511 221.157L236.717 223.846L236.068 223.482L235.786 220.399C235.744 219.985 235.646 219.644 235.493 219.378C235.339 219.112 235.105 218.891 234.791 218.715C234.38 218.484 233.947 218.374 233.494 218.386C233.033 218.394 232.583 218.521 232.144 218.767C231.432 219.167 231.013 219.722 230.888 220.435L229.904 220.247C229.918 219.926 230.064 219.593 230.343 219.249C230.622 218.904 230.989 218.605 231.442 218.351C232.126 217.967 232.845 217.764 233.598 217.74C234.345 217.713 235.018 217.867 235.618 218.204C236.044 218.443 236.358 218.728 236.56 219.061C236.762 219.386 236.885 219.81 236.926 220.335L237.104 222.818L240.788 220.752ZM247.245 217.13L247.967 217.535L243.812 219.866L243.09 219.461L244.733 218.539L239.071 215.363L238.517 216.766L237.69 216.302L238.381 214.553L238.873 214.277L245.602 218.052L247.245 217.13Z" fill="white"/>
<path d="M231.574 248.568C230.723 249.045 229.753 249.229 228.664 249.119C227.576 249.002 226.407 248.593 225.158 247.893C223.909 247.192 223.184 246.538 222.981 245.932C222.779 245.317 223.103 244.771 223.955 244.294C224.806 243.816 225.776 243.636 226.864 243.754C227.953 243.863 229.118 244.266 230.36 244.963C231.609 245.664 232.334 246.321 232.537 246.936C232.746 247.546 232.425 248.09 231.574 248.568ZM230.852 248.163C231.445 247.83 231.63 247.444 231.406 247.006C231.19 246.564 230.552 246.045 229.491 245.45C228.438 244.859 227.524 244.503 226.749 244.382C225.975 244.261 225.287 244.368 224.687 244.705C224.094 245.037 223.902 245.423 224.112 245.861C224.328 246.296 224.963 246.808 226.017 247.399C227.07 247.99 227.991 248.35 228.78 248.48C229.568 248.601 230.259 248.495 230.852 248.163ZM235.414 242.022C236.035 241.823 236.642 241.74 237.235 241.776C237.828 241.803 238.352 241.944 238.805 242.198C239.44 242.554 239.702 242.971 239.59 243.449C239.472 243.922 239.004 244.388 238.188 244.846C237.371 245.304 236.541 245.566 235.697 245.633C234.846 245.695 234.103 245.549 233.468 245.192C233.014 244.938 232.759 244.642 232.704 244.306C232.655 243.965 232.808 243.625 233.164 243.284C232.585 243.461 232.027 243.531 231.49 243.496C230.945 243.457 230.467 243.322 230.056 243.091C229.658 242.868 229.417 242.615 229.334 242.333C229.243 242.048 229.306 241.754 229.522 241.453C229.738 241.144 230.091 240.852 230.579 240.578C231.067 240.304 231.584 240.108 232.128 239.991C232.672 239.866 233.199 239.829 233.708 239.879C234.211 239.926 234.661 240.061 235.058 240.284C235.47 240.515 235.707 240.785 235.77 241.095C235.833 241.396 235.714 241.705 235.414 242.022ZM230.977 242.644C231.374 242.868 231.845 242.967 232.39 242.944C232.934 242.913 233.485 242.772 234.043 242.521C234.49 242.208 234.737 241.901 234.786 241.6C234.835 241.29 234.661 241.024 234.263 240.801C233.851 240.57 233.38 240.47 232.85 240.502C232.327 240.529 231.807 240.688 231.291 240.977C230.774 241.267 230.488 241.56 230.433 241.858C230.384 242.151 230.565 242.414 230.977 242.644ZM237.476 244.447C238.062 244.118 238.394 243.799 238.47 243.49C238.547 243.181 238.359 242.899 237.905 242.644C237.494 242.414 236.998 242.324 236.419 242.374C235.84 242.417 235.247 242.578 234.64 242.856C234.144 243.196 233.855 243.531 233.771 243.86C233.687 244.181 233.851 244.457 234.263 244.687C234.717 244.942 235.219 245.048 235.77 245.004C236.321 244.961 236.89 244.776 237.476 244.447ZM241.934 243.308L236.209 237.079L236.994 236.639L242.708 242.874L241.934 243.308ZM248.156 239.266C247.305 239.744 246.335 239.928 245.246 239.818C244.158 239.701 242.989 239.292 241.74 238.591C240.491 237.891 239.766 237.237 239.563 236.63C239.361 236.016 239.685 235.47 240.537 234.992C241.388 234.515 242.358 234.335 243.446 234.452C244.535 234.562 245.7 234.965 246.942 235.662C248.191 236.362 248.916 237.02 249.119 237.634C249.328 238.245 249.007 238.789 248.156 239.266ZM247.434 238.861C248.027 238.529 248.212 238.143 247.988 237.705C247.772 237.262 247.134 236.744 246.073 236.149C245.02 235.558 244.106 235.202 243.331 235.081C242.557 234.959 241.869 235.067 241.269 235.403C240.676 235.736 240.484 236.122 240.694 236.56C240.91 236.994 241.545 237.507 242.598 238.098C243.652 238.689 244.573 239.049 245.361 239.178C246.15 239.3 246.841 239.194 247.434 238.861ZM246.931 231.406C247.831 230.901 248.839 230.688 249.955 230.766C251.072 230.844 252.209 231.208 253.367 231.858C254.63 232.566 255.359 233.261 255.555 233.942C255.75 234.615 255.394 235.206 254.487 235.715C254.062 235.954 253.563 236.143 252.99 236.284C252.425 236.421 251.839 236.496 251.232 236.507L250.908 235.95C251.564 235.918 252.122 235.852 252.582 235.75C253.036 235.644 253.427 235.5 253.755 235.316C254.396 234.956 254.606 234.517 254.382 234.001C254.166 233.48 253.542 232.93 252.509 232.351L252.373 232.275C252.603 232.584 252.652 232.905 252.52 233.237C252.38 233.566 252.076 233.862 251.609 234.124C251.155 234.378 250.657 234.549 250.112 234.635C249.561 234.717 249.01 234.713 248.459 234.623C247.901 234.529 247.391 234.353 246.931 234.095C246.47 233.836 246.16 233.549 245.999 233.232C245.846 232.911 245.849 232.592 246.01 232.275C246.163 231.954 246.47 231.664 246.931 231.406ZM251.023 233.643C251.511 233.369 251.756 233.059 251.756 232.715C251.756 232.371 251.511 232.061 251.023 231.787C250.528 231.51 249.973 231.371 249.359 231.371C248.745 231.371 248.19 231.51 247.695 231.787C247.22 232.054 246.99 232.355 247.004 232.692C247.011 233.024 247.266 233.331 247.768 233.613C248.263 233.891 248.811 234.034 249.411 234.042C250.004 234.046 250.541 233.913 251.023 233.643ZM258.516 234.007L252.791 227.778L253.576 227.338L259.29 233.572L258.516 234.007ZM266.454 228.098L267.176 228.503L262.383 231.192L261.734 230.828L261.451 227.746C261.41 227.331 261.312 226.991 261.158 226.724C261.005 226.458 260.771 226.237 260.457 226.061C260.046 225.83 259.613 225.721 259.159 225.732C258.699 225.74 258.249 225.867 257.809 226.114C257.098 226.513 256.679 227.069 256.553 227.781L255.57 227.593C255.584 227.272 255.73 226.94 256.009 226.595C256.288 226.251 256.655 225.951 257.108 225.697C257.792 225.313 258.511 225.11 259.264 225.086C260.011 225.059 260.684 225.214 261.284 225.55C261.71 225.789 262.024 226.075 262.226 226.407C262.428 226.732 262.55 227.157 262.592 227.681L262.77 230.165L266.454 228.098ZM271.362 226.249C270.511 226.727 269.541 226.911 268.453 226.801C267.364 226.684 266.195 226.275 264.946 225.574C263.698 224.874 262.972 224.22 262.77 223.613C262.567 222.999 262.892 222.453 263.743 221.975C264.594 221.498 265.564 221.318 266.652 221.435C267.741 221.545 268.906 221.948 270.148 222.645C271.397 223.345 272.123 224.003 272.325 224.617C272.534 225.228 272.213 225.772 271.362 226.249ZM270.64 225.844C271.233 225.511 271.418 225.126 271.195 224.688C270.978 224.245 270.34 223.727 269.279 223.132C268.226 222.541 267.312 222.185 266.537 222.063C265.763 221.942 265.076 222.05 264.476 222.386C263.882 222.719 263.691 223.104 263.9 223.543C264.116 223.977 264.751 224.49 265.805 225.081C266.858 225.672 267.779 226.032 268.568 226.161C269.356 226.282 270.047 226.177 270.64 225.844ZM279.703 220.667L280.425 221.072L275.632 223.76L274.983 223.396L274.7 220.314C274.658 219.899 274.561 219.559 274.407 219.293C274.254 219.027 274.02 218.806 273.706 218.629C273.294 218.399 272.862 218.289 272.408 218.301C271.948 218.309 271.498 218.436 271.058 218.682C270.346 219.081 269.928 219.637 269.802 220.35L268.818 220.162C268.832 219.841 268.979 219.508 269.258 219.164C269.537 218.819 269.903 218.52 270.357 218.265C271.041 217.882 271.759 217.678 272.513 217.655C273.259 217.628 273.933 217.782 274.533 218.119C274.958 218.357 275.272 218.643 275.475 218.976C275.677 219.301 275.799 219.725 275.841 220.25L276.019 222.733L279.703 220.667ZM286.16 217.045L286.882 217.45L282.727 219.78L282.005 219.375L283.648 218.454L277.986 215.278L277.431 216.681L276.604 216.217L277.295 214.467L277.787 214.192L284.517 217.966L286.16 217.045Z" fill="white"/>
</g>
<defs>
<filter id="filter0_d" x="17.3828" y="2.07227" width="346.153" height="255.493" filterUnits="userSpaceOnUse" color-interpolation-filters="sRGB">
<feFlood flood-opacity="0" result="BackgroundImageFix"/>
<feColorMatrix in="SourceAlpha" type="matrix" values="0 0 0 0 0 0 0 0 0 0 0 0 0 0 0 0 0 0 127 0" result="hardAlpha"/>
<feOffset dy="4"/>
<feGaussianBlur stdDeviation="2"/>
<feComposite in2="hardAlpha" operator="out"/>
<feColorMatrix type="matrix" values="0 0 0 0 0 0 0 0 0 0 0 0 0 0 0 0 0 0 0.25 0"/>
<feBlend mode="normal" in2="BackgroundImageFix" result="effect1_dropShadow"/>
<feBlend mode="normal" in="SourceGraphic" in2="effect1_dropShadow" result="shape"/>
</filter>
<linearGradient id="paint0_linear" x1="80.6375" y1="203.805" x2="92.1518" y2="203.805" gradientUnits="userSpaceOnUse">
<stop stop-color="#008FFB" stop-opacity="0.7225"/>
<stop offset="0.5" stop-color="#40ABFC" stop-opacity="0.7225"/>
<stop offset="1" stop-color="#008FFB" stop-opacity="0.7225"/>
</linearGradient>
<linearGradient id="paint1_linear" x1="119.113" y1="203.806" x2="130.627" y2="203.806" gradientUnits="userSpaceOnUse">
<stop stop-color="#008FFB" stop-opacity="0.7225"/>
<stop offset="0.5" stop-color="#40ABFC" stop-opacity="0.7225"/>
<stop offset="1" stop-color="#008FFB" stop-opacity="0.7225"/>
</linearGradient>
<linearGradient id="paint2_linear" x1="156.981" y1="203.805" x2="168.496" y2="203.805" gradientUnits="userSpaceOnUse">
<stop stop-color="#008FFB" stop-opacity="0.7225"/>
<stop offset="0.5" stop-color="#40ABFC" stop-opacity="0.7225"/>
<stop offset="1" stop-color="#008FFB" stop-opacity="0.7225"/>
</linearGradient>
<linearGradient id="paint3_linear" x1="194.851" y1="203.805" x2="206.365" y2="203.805" gradientUnits="userSpaceOnUse">
<stop stop-color="#008FFB" stop-opacity="0.7225"/>
<stop offset="0.5" stop-color="#40ABFC" stop-opacity="0.7225"/>
<stop offset="1" stop-color="#008FFB" stop-opacity="0.7225"/>
</linearGradient>
<linearGradient id="paint4_linear" x1="232.719" y1="203.805" x2="244.234" y2="203.805" gradientUnits="userSpaceOnUse">
<stop stop-color="#008FFB" stop-opacity="0.7225"/>
<stop offset="0.5" stop-color="#40ABFC" stop-opacity="0.7225"/>
<stop offset="1" stop-color="#008FFB" stop-opacity="0.7225"/>
</linearGradient>
<linearGradient id="paint5_linear" x1="270.588" y1="203.806" x2="282.102" y2="203.806" gradientUnits="userSpaceOnUse">
<stop stop-color="#008FFB" stop-opacity="0.7225"/>
<stop offset="0.5" stop-color="#40ABFC" stop-opacity="0.7225"/>
<stop offset="1" stop-color="#008FFB" stop-opacity="0.7225"/>
</linearGradient>
<linearGradient id="paint6_linear" x1="308.457" y1="203.805" x2="319.971" y2="203.805" gradientUnits="userSpaceOnUse">
<stop stop-color="#008FFB" stop-opacity="0.7225"/>
<stop offset="0.5" stop-color="#40ABFC" stop-opacity="0.7225"/>
<stop offset="1" stop-color="#008FFB" stop-opacity="0.7225"/>
</linearGradient>
<linearGradient id="paint7_linear" x1="346.326" y1="203.806" x2="357.84" y2="203.806" gradientUnits="userSpaceOnUse">
<stop stop-color="#008FFB" stop-opacity="0.7225"/>
<stop offset="0.5" stop-color="#40ABFC" stop-opacity="0.7225"/>
<stop offset="1" stop-color="#008FFB" stop-opacity="0.7225"/>
</linearGradient>
</defs>
</svg>
