<svg width="95" height="95" viewBox="0 0 95 95" fill="none" xmlns="http://www.w3.org/2000/svg">
<path d="M94.7759 47.5C94.7759 73.4574 73.7333 94.5 47.7759 94.5C21.8185 94.5 0.775879 73.4574 0.775879 47.5C0.775879 21.5426 21.8185 0.5 47.7759 0.5C73.7333 0.5 94.7759 21.5426 94.7759 47.5ZM16.2645 47.5C16.2645 64.9032 30.3726 79.0114 47.7759 79.0114C65.1791 79.0114 79.2872 64.9032 79.2872 47.5C79.2872 30.0968 65.1791 15.9886 47.7759 15.9886C30.3726 15.9886 16.2645 30.0968 16.2645 47.5Z" fill="#59CBFF"/>
<path d="M94.7759 47.5C94.7759 73.4574 73.7333 94.5 47.7759 94.5C21.8185 94.5 0.775879 73.4574 0.775879 47.5C0.775879 21.5426 21.8185 0.5 47.7759 0.5C73.7333 0.5 94.7759 21.5426 94.7759 47.5ZM16.2645 47.5C16.2645 64.9032 30.3726 79.0114 47.7759 79.0114C65.1791 79.0114 79.2872 64.9032 79.2872 47.5C79.2872 30.0968 65.1791 15.9886 47.7759 15.9886C30.3726 15.9886 16.2645 30.0968 16.2645 47.5Z" fill="#59CBFF"/>
<path d="M91.5501 64.6118C88.3809 72.7192 83.0223 79.7872 76.0718 85.0279C69.1212 90.2686 60.8518 93.476 52.1854 94.2927C43.5189 95.1094 34.7959 93.5032 26.9887 89.6532C19.1816 85.8033 12.5969 79.8607 7.96891 72.4881C3.34087 65.1155 0.851249 56.6024 0.777563 47.8979C0.703876 39.1933 3.04902 30.6393 7.55158 23.1894C12.0541 15.7395 18.5372 9.68632 26.2781 5.70472C34.019 1.72312 42.7135 -0.0304875 51.3926 0.639362L50.2007 16.0821C44.3818 15.633 38.5525 16.8087 33.3626 19.4782C28.1727 22.1477 23.8261 26.206 20.8073 31.2008C17.7886 36.1957 16.2162 41.9307 16.2656 47.7667C16.3151 53.6027 17.9842 59.3104 21.0871 64.2534C24.19 69.1964 28.6047 73.1806 33.8391 75.7618C39.0734 78.3431 44.9218 79.4199 50.7323 78.8724C56.5427 78.3248 62.087 76.1744 66.747 72.6607C71.407 69.1471 74.9997 64.4084 77.1245 58.9727L91.5501 64.6118Z" fill="#59CBFF"/>
<path d="M91.5501 64.6118C88.3809 72.7192 83.0223 79.7872 76.0718 85.0279C69.1212 90.2686 60.8518 93.476 52.1854 94.2927C43.5189 95.1094 34.7959 93.5032 26.9887 89.6532C19.1816 85.8033 12.5969 79.8607 7.96891 72.4881C3.34087 65.1155 0.851249 56.6024 0.777563 47.8979C0.703876 39.1933 3.04902 30.6393 7.55158 23.1894C12.0541 15.7395 18.5372 9.68632 26.2781 5.70472C34.019 1.72312 42.7135 -0.0304875 51.3926 0.639362L50.2007 16.0821C44.3818 15.633 38.5525 16.8087 33.3626 19.4782C28.1727 22.1477 23.8261 26.206 20.8073 31.2008C17.7886 36.1957 16.2162 41.9307 16.2656 47.7667C16.3151 53.6027 17.9842 59.3104 21.0871 64.2534C24.19 69.1964 28.6047 73.1806 33.8391 75.7618C39.0734 78.3431 44.9218 79.4199 50.7323 78.8724C56.5427 78.3248 62.087 76.1744 66.747 72.6607C71.407 69.1471 74.9997 64.4084 77.1245 58.9727L91.5501 64.6118Z" fill="#FF647C"/>
<path d="M91.5501 64.6118C88.3809 72.7192 83.0223 79.7872 76.0718 85.0279C69.1212 90.2686 60.8518 93.476 52.1854 94.2927C43.5189 95.1094 34.7959 93.5032 26.9887 89.6532C19.1816 85.8033 12.5969 79.8607 7.96891 72.4881C3.34087 65.1155 0.851249 56.6024 0.777563 47.8979C0.703876 39.1933 3.04902 30.6393 7.55158 23.1894C12.0541 15.7395 18.5372 9.68632 26.2781 5.70472C34.019 1.72312 42.7135 -0.0304875 51.3926 0.639362L50.2007 16.0821C44.3818 15.633 38.5525 16.8087 33.3626 19.4782C28.1727 22.1477 23.8261 26.206 20.8073 31.2008C17.7886 36.1957 16.2162 41.9307 16.2656 47.7667C16.3151 53.6027 17.9842 59.3104 21.0871 64.2534C24.19 69.1964 28.6047 73.1806 33.8391 75.7618C39.0734 78.3431 44.9218 79.4199 50.7323 78.8724C56.5427 78.3248 62.087 76.1744 66.747 72.6607C71.407 69.1471 74.9997 64.4084 77.1245 58.9727L91.5501 64.6118Z" fill="url(#paint0_linear)"/>
<defs>
<linearGradient id="paint0_linear" x1="47.7759" y1="0.5" x2="47.7759" y2="94.5" gradientUnits="userSpaceOnUse">
<stop stop-color="white"/>
<stop offset="1" stop-color="white" stop-opacity="0"/>
</linearGradient>
</defs>
</svg>
