<svg width="153" height="108" viewBox="0 0 153 108" fill="none" xmlns="http://www.w3.org/2000/svg">
<path d="M22.95 46.375C31.3889 46.375 38.25 39.5363 38.25 31.125C38.25 22.7137 31.3889 15.875 22.95 15.875C14.5111 15.875 7.65 22.7137 7.65 31.125C7.65 39.5363 14.5111 46.375 22.95 46.375ZM130.05 46.375C138.489 46.375 145.35 39.5363 145.35 31.125C145.35 22.7137 138.489 15.875 130.05 15.875C121.611 15.875 114.75 22.7137 114.75 31.125C114.75 39.5363 121.611 46.375 130.05 46.375ZM137.7 54H122.4C118.193 54 114.391 55.6918 111.618 58.432C121.253 63.698 128.09 73.2055 129.572 84.5H145.35C149.581 84.5 153 81.0926 153 76.875V69.25C153 60.8387 146.139 54 137.7 54ZM76.5 54C91.298 54 103.275 42.0621 103.275 27.3125C103.275 12.5629 91.298 0.625 76.5 0.625C61.702 0.625 49.725 12.5629 49.725 27.3125C49.725 42.0621 61.702 54 76.5 54ZM94.86 61.625H92.8758C87.9033 64.0078 82.3809 65.4375 76.5 65.4375C70.6191 65.4375 65.1206 64.0078 60.1242 61.625H58.14C42.9356 61.625 30.6 73.9203 30.6 89.075V95.9375C30.6 102.252 35.7398 107.375 42.075 107.375H110.925C117.26 107.375 122.4 102.252 122.4 95.9375V89.075C122.4 73.9203 110.064 61.625 94.86 61.625ZM41.3817 58.432C38.6086 55.6918 34.8075 54 30.6 54H15.3C6.86109 54 0 60.8387 0 69.25V76.875C0 81.0926 3.41859 84.5 7.65 84.5H23.4042C24.9103 73.2055 31.7475 63.698 41.3817 58.432Z" fill="#F2F2F2"/>
</svg>
