<svg width="324" height="324" viewBox="0 0 324 324" fill="none" xmlns="http://www.w3.org/2000/svg">
<rect width="324" height="324" rx="162" fill="#EB5757"/>
<g clip-path="url(#clip0)">
<path d="M261.282 157.083L276.308 142.057C278.384 139.981 278.384 136.62 276.308 134.544L268.795 127.031C266.719 124.955 263.358 124.955 261.282 127.031L246.257 142.057L231.231 127.031C229.155 124.955 225.794 124.955 223.718 127.031L216.205 134.544C214.129 136.62 214.129 139.981 216.205 142.057L231.231 157.083L216.205 172.109C214.129 174.184 214.129 177.545 216.205 179.621L223.718 187.134C225.794 189.21 229.155 189.21 231.231 187.134L246.257 172.109L261.282 187.134C263.358 189.21 266.719 189.21 268.795 187.134L276.308 179.621C278.384 177.545 278.384 174.184 276.308 172.109L261.282 157.083ZM140.812 162.355C164.108 162.355 182.99 143.474 182.99 120.178C182.99 96.881 164.108 78 140.812 78C117.515 78 98.6335 96.881 98.6335 120.178C98.6335 143.474 117.515 162.355 140.812 162.355ZM170.336 172.899H164.833C157.518 176.26 149.379 178.172 140.812 178.172C132.244 178.172 124.138 176.26 116.79 172.899H111.287C86.8368 172.899 67 192.736 67 217.186V230.893C67 239.626 74.0846 246.71 82.8168 246.71H198.806C207.538 246.71 214.623 239.626 214.623 230.893V217.186C214.623 192.736 194.786 172.899 170.336 172.899Z" fill="#F2F2F2"/>
</g>
<defs>
<clipPath id="clip0">
<rect width="210.89" height="168.71" fill="white" transform="translate(67 78)"/>
</clipPath>
</defs>
</svg>
