<svg width="153" height="122" viewBox="0 0 153 122" fill="none" xmlns="http://www.w3.org/2000/svg">
<path d="M149.175 49.5625H133.875V34.3125C133.875 32.2156 132.154 30.5 130.05 30.5H122.4C120.296 30.5 118.575 32.2156 118.575 34.3125V49.5625H103.275C101.171 49.5625 99.45 51.2781 99.45 53.375V61C99.45 63.0969 101.171 64.8125 103.275 64.8125H118.575V80.0625C118.575 82.1594 120.296 83.875 122.4 83.875H130.05C132.154 83.875 133.875 82.1594 133.875 80.0625V64.8125H149.175C151.279 64.8125 153 63.0969 153 61V53.375C153 51.2781 151.279 49.5625 149.175 49.5625ZM53.55 61C70.4517 61 84.15 47.3465 84.15 30.5C84.15 13.6535 70.4517 0 53.55 0C36.6483 0 22.95 13.6535 22.95 30.5C22.95 47.3465 36.6483 61 53.55 61ZM74.97 68.625H70.9777C65.6705 71.0555 59.7656 72.4375 53.55 72.4375C47.3344 72.4375 41.4534 71.0555 36.1223 68.625H32.13C14.3916 68.625 0 82.9695 0 100.65V110.562C0 116.877 5.13984 122 11.475 122H95.625C101.96 122 107.1 116.877 107.1 110.562V100.65C107.1 82.9695 92.7084 68.625 74.97 68.625Z" fill="#F2F2F2"/>
</svg>
