<svg width="324" height="324" viewBox="0 0 324 324" fill="none" xmlns="http://www.w3.org/2000/svg">
<rect width="324" height="324" rx="162" fill="#27AE60"/>
<g clip-path="url(#clip0)">
<path d="M130.686 161.68C153.983 161.68 172.864 142.799 172.864 119.503C172.864 96.2065 153.983 77.3254 130.686 77.3254C107.39 77.3254 88.5089 96.2065 88.5089 119.503C88.5089 142.799 107.39 161.68 130.686 161.68ZM160.211 172.225H154.708C147.393 175.586 139.254 177.497 130.686 177.497C122.119 177.497 114.013 175.586 106.665 172.225H101.162C76.7123 172.225 56.8757 192.061 56.8757 216.511V230.219C56.8757 238.951 63.9602 246.035 72.6923 246.035H188.68C197.413 246.035 204.497 238.951 204.497 230.219V216.511C204.497 192.061 184.66 172.225 160.211 172.225ZM266.643 129.916L257.483 120.656C255.967 119.108 253.495 119.108 251.947 120.623L217.414 154.893L202.421 139.801C200.905 138.252 198.434 138.252 196.885 139.768L187.626 148.961C186.077 150.477 186.077 152.948 187.593 154.497L214.514 181.616C216.03 183.165 218.501 183.165 220.05 181.649L266.61 135.451C268.126 133.903 268.159 131.431 266.643 129.916Z" fill="#F2F2F2"/>
</g>
<defs>
<clipPath id="clip0">
<rect width="210.888" height="168.71" fill="white" transform="translate(56.8757 77.3254)"/>
</clipPath>
</defs>
</svg>
